<?xml version="1.0" encoding="UTF-8" standalone="no"?>


<svg width="190mm" height="297mm" viewBox="0 0 190 297" version="1.1" id="svg1" xml:space="preserve" xmlns:inkscape="http://www.inkscape.org/namespaces/inkscape" inkscape:version="1.4 (e7c3feb1, 2024-10-09)" xmlns:sodipodi-0.dtd="http://sodipodi.sourceforge.net/DTD/sodipodi-0.dtd" sodipodi-0.dtd:docname="유쳐로고.svg" xmlns:inkscape="http://www.inkscape.org/namespaces/inkscape" xmlns:sodipodi="http://sodipodi.sourceforge.net/DTD/sodipodi-0.dtd" xmlns="http://www.w3.org/2000/svg" xmlns:svg="http://www.w3.org/2000/svg"><namedview id="namedview1" pagecolor="#ffffff" bordercolor="#000000" borderopacity="0.25" inkscape:showpageshadow="2" inkscape:pageopacity="0.0" inkscape:pagecheckerboard="0" inkscape:deskcolor="#d1d1d1" inkscape:document-units="mm" inkscape:zoom="0.50627428" inkscape:cx="431.58424" inkscape:cy="526.3945" inkscape:window-width="1512" inkscape:window-height="916" inkscape:window-x="0" inkscape:window-y="38" inkscape:window-maximized="1" inkscape:current-layer="layer1"></namedview><defs id="defs1"></defs><g inkscape:label="Layer 1" inkscape:groupmode="layer" id="layer1"><g id="g1" transform="matrix(1.5013039,0,0,1.5013039,-73.083996,-62.488751)" style="fill:#000000"><path style="fill:#000000;fill-opacity:1" d="m 52.402607,237.9387 c -1.024778,-0.51339 -1.55793,-1.47499 -1.512,-2.72706 0.01998,-0.54478 1.31461,-4.11757 2.985103,-8.23803 1.622399,-4.00182 3.840156,-9.53823 4.92835,-12.30312 1.088194,-2.7649 2.210592,-5.56287 2.494217,-6.21771 0.283625,-0.65484 0.767815,-1.84547 1.075979,-2.64583 0.308164,-0.80037 0.914043,-2.34818 1.3464,-3.43959 6.743247,-17.02213 9.668574,-26.57891 10.940156,-35.74052 0.678833,-4.89092 0.810977,-12.93995 0.281988,-17.17614 -1.701382,-13.62482 -7.660789,-22.37103 -20.452103,-30.01615 -3.947158,-2.35914 -4.596359,-3.08824 -4.612564,-5.18027 -0.01245,-1.60751 0.526795,-2.52787 1.887566,-3.22162 0.788268,-0.40188 1.597583,-0.43359 7.521817,-0.29475 20.347989,0.47686 37.011711,-4.02364 54.395794,-14.69108 9.05105,-5.554019 16.6514,-11.617489 24.73854,-19.736117 4.32873,-4.345577 10.90692,-11.704527 13.52073,-15.125484 0.56725,-0.742415 1.81005,-2.349759 2.76179,-3.571875 0.95174,-1.222117 3.50031,-4.698484 5.6635,-7.725261 2.16318,-3.026777 4.22828,-5.735449 4.5891,-6.019271 1.8244,-1.435076 4.35621,0.233622 4.03427,2.658961 -0.029,0.218281 -1.22348,3.730625 -2.65446,7.805208 -11.26385,32.072768 -15.75746,48.516309 -16.9425,61.997859 -0.3622,4.12051 -0.22249,11.43138 0.27392,14.33443 1.81175,10.59529 8.19386,19.1511 18.65157,25.00415 4.12657,2.30959 4.63021,2.87067 4.63021,5.15835 0,1.66594 -0.50561,2.68918 -1.69073,3.42162 -0.86023,0.53165 -1.31119,0.56717 -8.27465,0.65177 -8.02753,0.0975 -11.29434,0.45688 -17.94816,1.97428 -23.64646,5.39255 -45.127236,19.60412 -67.616444,44.73467 -5.254107,5.8712 -14.609273,16.79233 -18.260066,21.31662 -4.360748,5.40411 -5.011351,5.88667 -6.757323,5.01196 z" id="path3"></path><path style="fill:#000000;fill-opacity:1" d="m 51.750464,237.31272 c -1.251917,-1.25192 -1.097627,-2.06404 1.745469,-9.18744 1.385376,-3.47107 2.749739,-6.84682 3.031917,-7.50167 0.282178,-0.65484 2.3686,-5.89359 4.636494,-11.64166 2.267893,-5.74808 4.24836,-10.7487 4.401036,-11.1125 1.147288,-2.73379 5.024183,-13.76174 6.138974,-17.4625 3.500886,-11.62187 4.624036,-23.99342 3.014531,-33.20521 -1.391794,-7.96576 -4.206596,-13.89215 -9.099932,-19.15935 -3.230829,-3.47768 -6.755721,-6.14777 -12.629092,-9.56649 -2.8491,-1.65838 -3.848458,-4.0852 -2.548459,-6.18865 0.930452,-1.5055 1.218339,-1.54934 9.796081,-1.49166 8.543417,0.0574 11.797343,-0.15384 17.991666,-1.16826 15.49375,-2.53736 27.728261,-7.81265 43.252251,-18.649548 3.37381,-2.355171 10.13511,-7.944775 13.72573,-11.347132 5.92383,-5.613241 13.38189,-13.841236 17.76681,-19.600968 0.58208,-0.764586 1.1784,-1.52569 1.32515,-1.691341 0.38562,-0.435289 3.9066,-5.18998 4.51208,-6.09306 0.28202,-0.420637 0.75089,-1.093392 1.04193,-1.495012 0.29105,-0.40162 1.50418,-2.09577 2.69587,-3.764777 2.0296,-2.842559 2.57893,-3.392924 3.34504,-3.351355 0.17,0.0092 0.0499,0.121221 -0.26682,0.248883 -0.5155,0.207761 -2.19465,2.320079 -5.25729,6.613513 -0.57093,0.800364 -1.1317,1.57427 -1.24616,1.719791 -0.11447,0.145521 -1.00922,1.382946 -1.98834,2.749834 -1.52891,2.134416 -3.32904,4.458301 -7.29087,9.412182 -5.86649,7.335468 -15.59079,17.032906 -23.27621,23.211924 -2.83935,2.28282 -10.69822,7.885434 -11.06101,7.885434 -0.10929,0 -0.36349,0.164797 -0.56491,0.366215 -0.20142,0.201417 -0.835,0.624109 -1.40796,0.939314 -0.57296,0.315204 -1.69659,0.976742 -2.49696,1.470083 -0.80036,0.493342 -2.02686,1.159501 -2.72554,1.480354 -0.69869,0.320856 -1.21989,0.714906 -1.15823,0.875676 0.0617,0.16078 -0.14756,0.30807 -0.46493,0.32732 -0.73605,0.0447 -4.66202,1.97582 -4.51158,2.21923 0.0622,0.10058 -0.16224,0.13025 -0.49867,0.0659 -0.33807,-0.0646 -0.7924,0.0638 -1.01566,0.28704 -0.22219,0.22218 -1.104181,0.64621 -1.959992,0.94229 -1.128924,0.39056 -1.292002,0.4973 -0.594134,0.38888 0.575346,-0.0894 1.034572,-0.0318 1.142761,0.14322 0.09948,0.16097 0.289249,0.22568 0.421707,0.14382 0.132458,-0.0819 0.497508,-0.0115 0.811208,0.15642 0.46336,0.24798 0.50162,0.35424 0.20391,0.56636 -0.2912,0.20747 -0.27647,0.23246 0.0717,0.12169 0.38388,-0.12214 1.28163,0.53586 1.28163,0.93936 0,0.28869 -1.01884,0.40671 -1.27755,0.148 -0.29232,-0.29232 -0.839119,-0.0587 -0.839119,0.35849 0,0.14674 0.225579,0.1952 0.501289,0.1077 0.30304,-0.0962 0.68702,0.0266 0.97092,0.31054 0.33597,0.33596 0.5008,0.37617 0.5791,0.14127 0.21253,-0.63759 0.59452,-0.31776 0.59452,0.49778 0,0.71017 -0.0566,0.77916 -0.40326,0.49146 -0.2218,-0.18407 -0.47012,-0.26783 -0.55183,-0.18612 -0.0817,0.0817 0.0873,0.27476 0.37548,0.42902 0.57839,0.30954 1.19952,-0.16124 1.07302,-0.81328 -0.1169,-0.60247 0.31859,-1.54098 0.71505,-1.54098 0.46596,0 0.50421,0.69915 0.0483,0.88311 -0.26459,0.10676 -0.26459,0.13763 0,0.15434 0.1819,0.0115 0.33072,0.14697 0.33072,0.30108 0,0.15411 -0.1345,0.19707 -0.2989,0.0955 -0.18144,-0.11214 -0.25076,-0.0403 -0.17639,0.18282 0.0674,0.20216 0.20623,0.30803 0.30856,0.23526 0.10232,-0.0728 0.29893,0.0463 0.43692,0.26459 0.2016,0.31893 0.25167,0.27995 0.25493,-0.19844 0.003,-0.41757 0.16204,-0.59531 0.53322,-0.59531 0.35783,0 0.52916,0.17639 0.52916,0.54478 0,0.29963 -0.11906,0.4712 -0.26458,0.38126 -0.14552,-0.0899 -0.26458,-0.0445 -0.26458,0.10106 0,0.14552 0.11906,0.33817 0.26458,0.42811 0.14552,0.0899 0.26458,0.0374 0.26458,-0.11668 0,-0.15411 0.26789,-0.27641 0.59532,-0.27178 0.58042,0.008 0.58246,0.0181 0.0817,0.39687 -0.43085,0.32588 -0.44402,0.38846 -0.0818,0.38846 0.48435,0 0.87305,0.47195 0.60746,0.73755 -0.0952,0.0952 -0.28106,-0.001 -0.41292,-0.21476 -0.2026,-0.3278 -0.29924,-0.30657 -0.62361,0.13704 -0.21113,0.28873 -0.32001,0.62828 -0.24196,0.75456 0.078,0.12629 0.24834,0.0681 0.37844,-0.12937 0.19071,-0.28943 0.31264,-0.25921 0.62938,0.15597 0.26286,0.34458 0.30497,0.60281 0.12726,0.78052 -0.33214,0.33213 -0.35034,0.77253 -0.0236,0.57058 0.13309,-0.0822 0.29217,-0.0595 0.35351,0.0505 0.0613,0.11005 0.0753,0.0513 0.0309,-0.13064 -0.0443,-0.1819 0.026,-0.33073 0.15626,-0.33073 0.13028,0 0.29252,-0.20836 0.36052,-0.46302 0.10472,-0.39213 0.15292,-0.37187 0.31485,0.13229 0.23013,0.71655 0.36333,0.73848 0.80628,0.13271 0.47346,-0.6475 0.83724,-0.16878 0.4017,0.52863 -0.35434,0.56738 -0.35208,0.56811 0.34551,0.11104 0.6197,-0.40605 0.72049,-0.41239 0.85802,-0.054 0.0857,0.22336 0.0896,0.57863 0.009,0.7895 -0.0993,0.25883 -0.02,0.33461 0.24417,0.23325 0.22662,-0.087 0.33072,-0.34096 0.24736,-0.60359 -0.0818,-0.25786 0.0696,-0.64665 0.35106,-0.90138 0.44173,-0.39976 0.53099,-0.40454 0.82988,-0.0444 0.18421,0.22196 0.76683,0.42139 1.29471,0.4432 0.76249,0.0315 0.81483,0.0618 0.25458,0.1477 -0.92426,0.14163 -1.13266,0.7529 -0.47941,1.40616 0.52116,0.52116 0.52316,0.52114 0.52316,-0.006 0,-0.39464 0.17639,-0.52916 0.69386,-0.52916 0.55046,0 0.63295,0.0734 0.39917,0.35507 -0.16208,0.19529 -0.21634,0.43342 -0.12059,0.52917 0.0957,0.0957 0.0282,0.17409 -0.1502,0.17409 -0.17837,0 -0.25009,0.12007 -0.15939,0.26682 0.0907,0.14675 -0.11064,0.37733 -0.44741,0.5124 -0.33677,0.13506 -0.4496,0.25312 -0.25074,0.26234 0.23689,0.011 0.31956,0.23655 0.23975,0.65408 -0.0933,0.48804 -0.0278,0.60122 0.27967,0.48323 0.28735,-0.11026 0.35517,-0.0333 0.23854,0.27061 -0.12212,0.31822 -0.0304,0.39914 0.36603,0.3228 0.29095,-0.056 0.8301,0.0126 1.19811,0.15252 0.50056,0.19032 0.64174,0.17227 0.56044,-0.0716 -0.0598,-0.17931 -0.49277,-0.40458 -0.96222,-0.50059 -0.46944,-0.096 -0.92132,-0.24236 -1.00418,-0.32521 -0.25364,-0.25364 0.14996,-1.43102 0.54214,-1.58151 0.25991,-0.0997 0.32978,0.009 0.23601,0.36769 -0.0733,0.28015 -0.25822,0.50937 -0.41103,0.50937 -0.1528,0 -0.22032,0.0575 -0.15005,0.12776 0.0703,0.0703 0.50913,0.0184 0.97524,-0.11528 0.46612,-0.13368 0.7848,-0.14164 0.70819,-0.0177 -0.0766,0.12396 -0.002,0.56279 0.16536,0.97518 l 0.30464,0.74981 0.2517,-0.98796 c 0.22926,-0.89991 0.30138,-0.96138 0.80908,-0.68967 0.4154,0.22232 0.58307,0.22124 0.65822,-0.004 0.14191,-0.42572 0.58591,-0.37761 0.58591,0.0635 0,0.20131 0.23813,0.42829 0.52917,0.5044 0.29104,0.0761 0.51977,0.29835 0.50828,0.49388 -0.0157,0.26676 -0.0542,0.27305 -0.15419,0.0252 -0.0827,-0.20493 -0.37733,-0.26902 -0.7763,-0.16889 -0.37646,0.0945 -0.82713,0.012 -1.08722,-0.19889 -0.24508,-0.19877 -0.36142,-0.22214 -0.2595,-0.0521 0.1016,0.16948 0.0352,0.36844 -0.14765,0.44214 -0.18281,0.0737 0.0616,0.1434 0.54313,0.15489 0.48514,0.0116 0.80579,0.1337 0.71913,0.27391 -0.086,0.13917 -0.33116,0.18596 -0.54478,0.10399 -0.23685,-0.0909 -0.3884,0.008 -0.3884,0.2545 0,0.22194 -0.0755,0.62164 -0.16789,0.8882 -0.14922,0.43079 -0.11741,0.42584 0.28619,-0.0445 0.38017,-0.44304 0.43037,-0.45381 0.30848,-0.0661 -0.0801,0.25466 -0.0839,0.46302 -0.008,0.46302 0.36197,0 1.69835,-0.83812 1.69835,-1.06513 0,-0.14178 0.12708,-0.25779 0.28241,-0.25779 0.16755,0 0.20983,0.22869 0.10395,0.5623 -0.1201,0.37839 -0.0827,0.50309 0.11446,0.38126 0.16111,-0.0996 0.29293,-0.0549 0.29293,0.0992 0,0.15411 -0.1786,0.2802 -0.39688,0.2802 -0.21828,0 -0.39687,0.17859 -0.39687,0.39687 0,0.21828 -0.10633,0.39688 -0.23628,0.39688 -0.12995,0 -0.29873,0.16276 -0.37507,0.36169 -0.11211,0.29215 -0.0162,0.30487 0.4988,0.0661 0.35067,-0.16255 0.63851,-0.38485 0.63965,-0.49399 10e-4,-0.10914 0.30675,-0.19844 0.67914,-0.19844 0.41281,0 0.6089,0.11031 0.5024,0.28263 -0.0961,0.15544 -0.34122,0.21871 -0.54478,0.14059 -0.20356,-0.0781 -0.37011,-0.0267 -0.37011,0.11426 0,0.14095 0.18278,0.25627 0.40618,0.25627 0.32266,0 0.3486,0.1076 0.12617,0.52322 -0.23205,0.43359 -0.20734,0.49532 0.1443,0.36038 0.25861,-0.0992 0.37339,-0.35754 0.29392,-0.66144 -0.10742,-0.41077 -0.006,-0.48222 0.574,-0.40551 0.47663,0.063 0.73113,0.27425 0.78709,0.65333 0.0683,0.4626 -0.0419,0.55115 -0.63256,0.50814 -0.41365,-0.0301 -0.77028,0.10431 -0.84573,0.31878 -0.0944,0.26829 0.0257,0.33002 0.43412,0.22321 0.31053,-0.0812 0.56459,-0.0397 0.56459,0.0922 0,0.1319 0.0893,0.22572 0.19844,0.20849 0.50069,-0.0791 0.85989,0.0564 0.85989,0.32422 0,0.16109 -0.18744,0.22096 -0.41653,0.13305 -0.22909,-0.0879 -0.59115,0.0148 -0.80458,0.2282 -0.34099,0.341 -0.27446,0.4355 0.54883,0.77949 0.51528,0.2153 0.93687,0.51892 0.93687,0.67471 0,0.16298 0.30182,0.22853 0.71082,0.15436 0.39095,-0.0709 0.87008,0.003 1.06472,0.16482 0.19465,0.16155 0.43041,0.21722 0.52391,0.12372 0.0935,-0.0935 0.001,-0.17182 -0.20484,-0.17404 -0.30987,-0.003 -0.30605,-0.0527 0.022,-0.28473 0.29867,-0.21122 0.31504,-0.31388 0.0662,-0.41487 -0.47469,-0.19261 -0.41,-0.63308 0.0661,-0.45037 0.21828,0.0838 0.39687,0.37769 0.39687,0.65316 0,0.27547 0.11906,0.50086 0.26458,0.50086 0.14552,0 0.26459,0.12609 0.26459,0.2802 0,0.15411 -0.12202,0.20479 -0.27114,0.11262 -0.14913,-0.0922 -0.25409,-0.0694 -0.23325,0.0505 0.0949,0.54652 -0.0591,0.65144 -0.46497,0.31665 -0.39764,-0.32802 -0.41063,-0.30763 -0.13441,0.21084 0.23604,0.44305 0.23083,0.60425 -0.0228,0.70672 -0.18497,0.0747 -0.1154,0.14188 0.15918,0.15363 0.27643,0.0118 0.54775,-0.2084 0.62617,-0.50828 0.0761,-0.29104 0.29035,-0.52916 0.47609,-0.52916 0.18574,0 0.40053,-0.16371 0.47731,-0.3638 0.0768,-0.2001 0.45942,-0.36381 0.85031,-0.36381 0.47096,0 0.59387,0.0722 0.36435,0.21406 -0.19048,0.11772 -0.44132,0.15535 -0.55741,0.0836 -0.25303,-0.15638 -0.28564,0.53177 -0.037,0.78043 0.0958,0.0957 0.31757,0.055 0.49292,-0.0905 0.2384,-0.19785 0.28682,-0.0972 0.19194,0.39917 -0.10469,0.54768 -0.024,0.66377 0.46143,0.66377 0.43678,0 0.54539,-0.11186 0.42166,-0.43429 -0.13746,-0.35824 -0.098,-0.37736 0.22511,-0.10917 0.30667,0.25451 0.32265,0.39911 0.0736,0.66573 -0.17499,0.18733 -0.48715,0.27575 -0.69369,0.19649 -0.23951,-0.0919 -0.30623,-0.032 -0.18421,0.16545 0.10522,0.17025 0.0652,0.30954 -0.0889,0.30954 -0.15411,0 -0.2802,0.1786 -0.2802,0.39688 0,0.57817 0.70172,0.48543 1.148,-0.15172 0.21134,-0.30173 0.45553,-0.43327 0.54265,-0.29231 0.0871,0.14096 -0.0195,0.32456 -0.23696,0.408 -0.51925,0.19925 -0.50384,0.59924 0.031,0.80447 0.30506,0.11707 0.38268,0.0499 0.27288,-0.23627 -0.0971,-0.25314 4.6e-4,-0.39988 0.26597,-0.39988 0.29422,0 0.38491,0.18052 0.30381,0.60476 -0.0832,0.43511 0.009,0.60476 0.32718,0.60476 0.24354,0 0.43051,-0.16636 0.4155,-0.36968 -0.015,-0.20333 0.23452,-0.46939 0.55452,-0.59125 0.45583,-0.17358 0.54972,-0.13789 0.43356,0.1648 -0.10579,0.27569 -0.0223,0.33802 0.29152,0.21761 0.37042,-0.14215 0.40975,-0.0491 0.24941,0.58969 -0.18088,0.72068 -0.16744,0.73552 0.27004,0.29805 0.55227,-0.55227 0.4263,-0.54545 1.51671,-0.0821 l 0.89027,0.3783 -1.05833,-0.0186 c -0.58209,-0.0102 -1.31261,0.0482 -1.62338,0.12984 -0.46803,0.12298 -0.5466,0.0499 -0.45759,-0.42583 0.10126,-0.54118 0.094,-0.54378 -0.12594,-0.0451 -0.33911,0.76882 -0.0936,1.16493 0.63959,1.03198 0.36836,-0.0668 0.64128,0.0107 0.64128,0.18215 0,0.1888 0.25115,0.23541 0.68362,0.12686 0.46677,-0.11715 0.62621,-0.0787 0.50262,0.12131 -0.11245,0.18195 0.004,0.26113 0.30856,0.20904 0.29244,-0.0501 0.46103,0.055 0.4187,0.26106 -0.039,0.1897 0.11094,0.52672 0.33316,0.74894 0.22222,0.22221 0.33638,0.51349 0.2537,0.64728 -0.0827,0.13379 -0.028,0.24325 0.12155,0.24325 0.14954,0 0.19858,0.20836 0.10897,0.46303 -0.13301,0.37797 -0.0975,0.40227 0.19351,0.13229 0.52323,-0.48549 1.06021,-0.41533 0.85783,0.11208 -0.13218,0.34444 -0.0641,0.4022 0.30642,0.26002 0.26199,-0.10054 0.61008,-0.0731 0.77354,0.061 0.16345,0.13409 0.59485,0.29962 0.95865,0.36785 0.66063,0.1239 0.66071,0.1243 0.0661,0.3208 -0.67378,0.22266 -0.81277,0.92877 -0.18283,0.92877 0.22687,0 0.33891,-0.11906 0.24897,-0.26459 -0.0899,-0.14552 -0.0502,-0.26458 0.0884,-0.26458 0.13854,0 0.32042,0.17859 0.40419,0.39688 0.1736,0.4524 0.69807,0.54006 0.69807,0.11667 0,-0.15411 -0.13142,-0.19898 -0.29203,-0.0997 -0.16062,0.0993 -0.0874,-0.13184 0.16272,-0.51355 0.49052,-0.74864 0.80364,-0.92481 0.57233,-0.32202 -0.0785,0.20461 0.0703,0.56479 0.33061,0.8004 0.30318,0.27438 0.43554,0.68757 0.36816,1.14934 l -0.1052,0.72095 0.36767,-0.79375 c 0.37203,-0.80315 0.32289,-1.45521 -0.10965,-1.45521 -0.12996,0 -0.23628,-0.17859 -0.23628,-0.39687 0,-0.5976 0.44662,-0.47653 0.61482,0.16665 0.0936,0.35808 0.28844,0.5094 0.5343,0.41505 0.21282,-0.0817 0.60688,0.0308 0.87568,0.24986 0.46825,0.38163 0.46518,0.39337 -0.073,0.27995 -0.41844,-0.0882 -0.53312,-0.009 -0.44949,0.31109 0.0964,0.36881 0.87401,0.49715 1.92407,0.31755 0.0655,-0.0112 -0.0238,-0.16324 -0.19843,-0.33786 -0.17463,-0.17463 -0.31372,-0.44252 -0.30909,-0.59531 0.01,-0.32181 0.78534,0.63803 0.78534,0.9719 0,0.1224 -0.26789,0.33022 -0.59532,0.46183 -0.42357,0.17026 -0.46759,0.24412 -0.15259,0.25606 0.2435,0.009 0.81591,-0.29725 1.27203,-0.68105 0.82211,-0.69176 0.8306,-0.69291 0.9772,-0.13229 0.0813,0.31104 0.26581,0.56552 0.40993,0.56552 0.14411,0 0.19349,-0.17859 0.10973,-0.39687 -0.0838,-0.21828 -0.044,-0.39688 0.0884,-0.39688 0.43558,0 0.58805,0.5451 0.26228,0.93764 -0.25688,0.30951 -0.23802,0.38528 0.0959,0.38528 0.7112,0 1.81661,1.22513 1.71568,1.90151 -0.0939,0.62948 0.92276,1.80169 1.56319,1.80233 0.18548,1.9e-4 0.26128,0.19699 0.17846,0.46335 -0.13061,0.42006 -0.1156,0.41874 0.1617,-0.0142 0.24042,-0.37537 0.21397,-0.6172 -0.12393,-1.13291 -0.23629,-0.36061 -0.53747,-0.589 -0.6693,-0.50753 -0.26753,0.16535 -0.80725,-0.69827 -0.77391,-1.23835 0.0118,-0.19147 0.18504,0.009 0.38494,0.44562 0.1999,0.43657 0.36883,0.66613 0.37539,0.51016 0.0181,-0.43076 -0.82314,-2.82121 -1.20379,-3.42057 -0.18484,-0.29105 -0.5227,-1.51144 -0.7508,-2.71198 -0.2281,-1.20055 -0.59316,-3.11665 -0.81125,-4.25801 -0.81652,-4.27318 -0.30642,-14.94667 1.05148,-22.00189 0.948,-4.92545 3.11489,-14.334751 3.53404,-15.345832 0.15082,-0.363802 0.58362,-1.792552 0.96179,-3.174999 1.50573,-5.504451 5.05491,-16.606453 4.73671,-14.816667 -0.0906,0.509323 -0.4975,1.938073 -0.90433,3.175 -0.40682,1.236927 -1.17338,3.677708 -1.70345,5.423958 -5.52901,18.21459 -7.56935,28.8939 -7.55934,39.56609 0.009,9.84086 1.91895,16.42885 6.5184,22.48665 1.6661,2.19437 4.65752,5.31715 6.32814,6.60602 0.93578,0.72195 1.36957,1.21343 1.17638,1.33282 -0.20107,0.12427 -0.21335,0.24643 -0.0358,0.35616 0.14863,0.0919 0.31806,0.0235 0.37652,-0.15185 0.0673,-0.20201 0.77855,0.12388 1.94083,0.88934 1.00899,0.66451 2.38823,1.51265 3.06497,1.88476 3.93726,2.16496 4.32582,2.61015 4.32582,4.95626 0,1.55825 -0.0898,1.89897 -0.66146,2.51006 -1.20001,1.28276 -1.35185,1.30684 -8.46667,1.34302 -5.8408,0.0297 -7.36159,0.12794 -11.32425,0.73158 -7.29657,1.11149 -12.87664,2.52796 -19.23512,4.88272 -8.75166,3.24103 -16.75746,7.53148 -25.79789,13.82553 -1.82424,1.27006 -8.129739,6.14336 -9.905393,7.65554 -10.085115,8.58866 -23.396503,22.8222 -37.594168,40.19852 -4.300378,5.26317 -5.175254,6.1049 -6.345306,6.1049 -0.712222,0 -1.165313,-0.20174 -1.736969,-0.77339 z M 155.69003,145.91039 c -0.2524,-0.19166 -0.38138,-0.426 -0.28663,-0.52075 0.0948,-0.0948 -0.0262,-0.17228 -0.2687,-0.17228 -0.24253,0 -0.44097,0.0762 -0.44097,0.16927 0,0.23546 0.86921,0.87224 1.19062,0.87224 0.14552,0 0.0581,-0.15682 -0.19432,-0.34848 z m -1.52547,-2.28053 c -0.15576,-0.29104 -0.34273,-0.52916 -0.41549,-0.52916 -0.0728,0 -0.005,0.23812 0.15091,0.52916 0.15576,0.29105 0.34273,0.52917 0.41549,0.52917 0.0728,0 0.005,-0.23812 -0.15091,-0.52917 z m -1.5875,-0.39687 c 0,-0.21828 -0.11532,-0.39688 -0.25628,-0.39688 -0.14095,0 -0.18774,0.1786 -0.10398,0.39688 0.0838,0.21828 0.19909,0.39687 0.25628,0.39687 0.0572,0 0.10398,-0.17859 0.10398,-0.39687 z m -1.40676,-0.71107 c -0.0845,-0.21107 -0.14715,-0.14837 -0.15985,0.15985 -0.0115,0.27892 0.0511,0.43519 0.13896,0.34727 0.0879,-0.0879 0.0973,-0.31612 0.0209,-0.50712 z m -0.18074,-1.1254 c 0,-0.0642 -0.11906,-0.19026 -0.26458,-0.2802 -0.14552,-0.0899 -0.26458,-0.0374 -0.26458,0.11668 0,0.15411 0.11906,0.2802 0.26458,0.2802 0.14552,0 0.26458,-0.0525 0.26458,-0.11668 z m -4.7625,-0.79375 c 0,-0.0642 -0.11906,-0.19026 -0.26458,-0.2802 -0.14552,-0.0899 -0.26458,-0.0374 -0.26458,0.11668 0,0.15411 0.11906,0.2802 0.26458,0.2802 0.14552,0 0.26458,-0.0525 0.26458,-0.11668 z m 1.59075,-1.46476 c -0.15398,-0.28771 -0.52437,-0.6539 -0.82309,-0.81378 -0.49325,-0.26398 -0.51669,-0.24128 -0.25527,0.24719 0.23576,0.44053 0.95463,1.04665 1.28286,1.08165 0.0415,0.004 -0.0505,-0.22735 -0.2045,-0.51506 z m 0.55632,-0.37461 c -0.40749,-0.22587 -0.52466,-0.41555 -0.33073,-0.5354 0.35683,-0.22054 0.40022,-0.68355 0.0641,-0.68355 -0.40125,0 -0.58328,0.84072 -0.26506,1.22416 0.16585,0.19983 0.49533,0.35912 0.73217,0.35396 0.30265,-0.007 0.24308,-0.11333 -0.20043,-0.35917 z m -0.89581,-1.11422 c -0.0879,-0.0879 -0.31612,-0.0973 -0.50712,-0.0209 -0.21106,0.0845 -0.14837,0.14716 0.15986,0.15985 0.27891,0.0115 0.43518,-0.051 0.34726,-0.13896 z m -5.49269,-1.03077 c 0,-0.14552 -0.11542,-0.086 -0.25648,0.13229 -0.18637,0.28838 -0.25759,0.3022 -0.26054,0.0505 -0.002,-0.19049 -0.12192,-0.27349 -0.266,-0.18445 -0.16486,0.10189 -0.14035,0.29294 0.0661,0.5155 0.33356,0.3595 0.71687,0.0847 0.71687,-0.51387 z m -3.69607,-1.19063 c 0,-0.14552 -0.12609,-0.26458 -0.2802,-0.26458 -0.1541,0 -0.20661,0.11906 -0.11667,0.26458 0.0899,0.14552 0.21602,0.26458 0.2802,0.26458 0.0642,0 0.11667,-0.11906 0.11667,-0.26458 z m 1.32292,-0.1282 c 0,-0.0394 -0.17859,-0.21981 -0.39688,-0.40097 -0.33125,-0.27492 -0.39687,-0.2379 -0.39687,0.22389 0,0.38308 0.12207,0.50641 0.39687,0.40096 0.21829,-0.0838 0.39688,-0.18451 0.39688,-0.22388 z m -2.45291,-0.8254 c -0.0879,-0.0879 -0.31612,-0.0973 -0.50712,-0.0209 -0.21106,0.0845 -0.14837,0.14716 0.15986,0.15985 0.27891,0.0115 0.43518,-0.051 0.34726,-0.13896 z m -1.74667,-1.62609 c 0.3291,-0.41964 0.31974,-0.429 -0.0999,-0.0999 -0.44073,0.34564 -0.58089,0.56291 -0.36313,0.56291 0.0549,0 0.26331,-0.20835 0.46303,-0.46302 z m -2.94417,-1.12448 c 0,-0.14552 -0.20836,-0.26276 -0.46302,-0.26053 -0.3957,0.003 -0.40532,0.0414 -0.0661,0.26053 0.49933,0.32269 0.52917,0.32269 0.52917,0 z m 2.11667,-0.26458 c -0.21828,-0.14106 -0.635,-0.24993 -0.92605,-0.24193 l -0.52916,0.0145 0.52916,0.22739 c 0.29105,0.12507 0.70777,0.23394 0.92605,0.24194 0.35277,0.0129 0.35277,-0.014 0,-0.24194 z m -3.87307,-1.45521 c 0.0838,-0.21828 0.037,-0.39687 -0.10399,-0.39687 -0.14095,0 -0.25628,0.17859 -0.25628,0.39687 0,0.21828 0.0468,0.39688 0.10399,0.39688 0.0572,0 0.17251,-0.1786 0.25628,-0.39688 z m -1.84681,-1.33666 c 0.0904,-0.23546 0.046,-0.34166 -0.10399,-0.24896 -0.14385,0.0889 -0.26155,0.27368 -0.26155,0.41061 0,0.38059 0.18964,0.29672 0.36554,-0.16165 z m -0.42398,-0.95532 c -0.11825,-0.35475 -0.99989,-0.5489 -0.99989,-0.2202 0,0.21338 0.43743,0.46481 0.88194,0.50692 0.12127,0.0115 0.17435,-0.11754 0.11795,-0.28672 z m 0.65661,-0.19227 c 0.0719,-0.27493 0.0281,-0.66189 -0.0974,-0.8599 -0.15509,-0.24477 -0.2294,-0.0847 -0.23216,0.49988 -0.005,0.96266 0.13273,1.11262 0.32954,0.36002 z m -6.3277,-0.70216 c -0.0862,-0.22456 -0.21342,-0.35154 -0.28278,-0.28218 -0.0694,0.0694 -0.0476,0.25308 0.0483,0.40828 0.26089,0.42213 0.41338,0.34013 0.23447,-0.1261 z m 2.95141,0.1437 c -0.0899,-0.14552 -0.30533,-0.26276 -0.47864,-0.26053 -0.18934,0.002 -0.15671,0.10643 0.0818,0.26053 0.5083,0.32849 0.59989,0.32849 0.39688,0 z m -1.45521,-1.01586 c 0,-0.12216 -0.2883,-0.35347 -0.64065,-0.51401 -0.48187,-0.21956 -0.60851,-0.4432 -0.51097,-0.90237 0.12457,-0.58635 0.11654,-0.58956 -0.20326,-0.0813 -0.18312,0.29104 -0.34014,0.56042 -0.34893,0.59861 -0.0138,0.06 1.45563,1.04862 1.63766,1.10184 0.0364,0.0106 0.0661,-0.0806 0.0661,-0.20277 z m -1.85209,-3.21747 c 0,-0.14552 -0.11906,-0.26458 -0.26458,-0.26458 -0.14552,0 -0.26458,0.11906 -0.26458,0.26458 0,0.14552 0.11906,0.26458 0.26458,0.26458 0.14552,0 0.26458,-0.11906 0.26458,-0.26458 z m -2.11666,-0.62906 c 0,-0.0549 -0.20836,-0.2633 -0.46302,-0.46302 -0.41965,-0.32911 -0.42901,-0.31975 -0.0999,0.0999 0.34565,0.44073 0.56292,0.58089 0.56292,0.36313 z m -3.49954,-3.75242 c -0.0787,-0.0787 -0.54387,0.0403 -1.03375,0.26439 -0.48987,0.22411 -0.62219,0.34096 -0.29406,0.25966 0.41681,-0.10326 0.65029,-0.008 0.77468,0.31622 0.15964,0.416 0.20487,0.40394 0.43714,-0.11659 0.14249,-0.31933 0.19469,-0.64498 0.11599,-0.72368 z m -4.02219,-3.44263 c -0.28019,-0.20488 -0.56897,-0.31297 -0.64173,-0.24021 -0.0728,0.0728 0.097,0.29992 0.37715,0.5048 0.28019,0.20488 0.56896,0.31297 0.64173,0.24021 0.0728,-0.0728 -0.097,-0.29992 -0.37715,-0.5048 z m -0.48743,-1.06699 c -0.0879,-0.0879 -0.31612,-0.0973 -0.50712,-0.0209 -0.21107,0.0845 -0.14837,0.14716 0.15985,0.15985 0.27892,0.0115 0.43519,-0.051 0.34727,-0.13896 z m -0.45751,-0.64951 c 0,-0.15411 0.11906,-0.20662 0.26458,-0.11668 0.44693,0.27621 0.29275,-0.30924 -0.18308,-0.69521 -0.25502,-0.20686 -0.36702,-0.22867 -0.26026,-0.0507 0.10306,0.17185 0.0664,0.38724 -0.0815,0.47864 -0.3458,0.21372 -0.34873,0.66412 -0.004,0.66412 0.14552,0 0.26458,-0.12608 0.26458,-0.28019 z m -10.48238,-3.04084 c 0.0904,-0.23546 0.046,-0.34166 -0.10398,-0.24897 -0.14386,0.0889 -0.26156,0.27369 -0.26156,0.41062 0,0.38058 0.18965,0.29672 0.36554,-0.16165 z m -2.217619,-3.85394 c 0,-0.14553 -0.119062,-0.191 -0.264583,-0.10107 -0.145521,0.0899 -0.264583,0.28259 -0.264583,0.42811 0,0.14552 0.119062,0.191 0.264583,0.10106 0.145521,-0.0899 0.264583,-0.28258 0.264583,-0.4281 z m -5.363324,0.13596 c -0.08792,-0.0879 -0.316122,-0.0973 -0.507118,-0.0209 -0.211067,0.0845 -0.148372,0.14715 0.159852,0.15985 0.278915,0.0115 0.435185,-0.0511 0.347266,-0.13896 z m 1.791449,-0.49205 c 1.021837,-0.4679 0.54655,-0.47476 -0.661458,-0.01 -0.509323,0.19614 -0.747448,0.3603 -0.529167,0.36481 0.218282,0.005 0.754063,-0.15536 1.190625,-0.35525 z m 54.371874,31.57235 c 0,-0.1167 -0.1634,-0.14947 -0.36312,-0.0728 -0.26726,0.10256 -0.32896,-0.0393 -0.23374,-0.53747 0.156,-0.81605 0.33617,-0.84392 0.93493,-0.14462 0.56066,0.65481 0.57965,0.96712 0.0588,0.96712 -0.21828,0 -0.39687,-0.0955 -0.39687,-0.21219 z m -2.09575,-1.53878 c -0.24084,-0.14884 -0.25538,-0.26489 -0.0492,-0.39234 0.16105,-0.0995 0.29283,-0.30004 0.29283,-0.44556 0,-0.14552 -0.10418,-0.2002 -0.23151,-0.1215 -0.12734,0.0787 -0.23151,-0.1432 -0.23151,-0.49309 0,-0.50077 0.0715,-0.57013 0.33603,-0.32591 0.18481,0.17065 0.28393,0.39639 0.22025,0.50166 -0.0637,0.10526 0.12741,0.39961 0.42464,0.65411 0.29724,0.2545 0.54043,0.52999 0.54043,0.6122 0,0.23622 -0.92469,0.24363 -1.302,0.0104 z m 1.69887,-0.27751 c 0.0899,-0.14552 0.21603,-0.26458 0.2802,-0.26458 0.0642,0 0.11668,0.11906 0.11668,0.26458 0,0.14553 -0.12609,0.26459 -0.2802,0.26459 -0.15411,0 -0.20661,-0.11906 -0.11668,-0.26459 z m -5.15937,-0.63941 c 0,-0.2304 0.18852,-0.41892 0.41892,-0.41892 0.23041,0 0.3718,0.14139 0.3142,0.31419 -0.16354,0.4906 -0.73312,0.57197 -0.73312,0.10473 z m 5.04797,-0.30868 c 0.0127,-0.30822 0.0754,-0.37092 0.15985,-0.15985 0.0764,0.191 0.067,0.4192 -0.0209,0.50712 -0.0879,0.0879 -0.15046,-0.0684 -0.13897,-0.34727 z m -9.19151,-0.70817 c -0.10725,-0.17353 -0.042,-0.19752 0.17405,-0.064 0.21432,0.13246 0.46878,0.0451 0.66987,-0.22986 0.30146,-0.41228 0.33289,-0.41047 0.44693,0.0257 0.09,0.34443 -0.0425,0.47936 -0.49832,0.50744 -0.34154,0.021 -0.69818,-0.0866 -0.79253,-0.23931 z m 5.64284,0.15696 c -0.24662,-0.24663 -0.22014,-0.61736 0.0441,-0.61736 0.12127,0 0.22049,0.17859 0.22049,0.39687 0,0.44962 -0.0193,0.46574 -0.26459,0.22049 z m -6.79097,-0.88195 c 0,-0.14552 0.11907,-0.26458 0.26459,-0.26458 0.14552,0 0.26458,0.11906 0.26458,0.26458 0,0.14553 -0.11906,0.26459 -0.26458,0.26459 -0.14552,0 -0.26459,-0.11906 -0.26459,-0.26459 z m 9.69332,-0.13381 c -0.0834,-0.21744 -0.0434,-0.39535 0.0889,-0.39535 0.35866,0 0.58138,0.47019 0.30394,0.64165 -0.13265,0.082 -0.30945,-0.0289 -0.39289,-0.2463 z m -11.76821,-2.51202 c 0,-0.3638 0.0601,-0.51263 0.13345,-0.33073 0.0734,0.1819 0.0734,0.47956 0,0.66146 -0.0734,0.1819 -0.13345,0.0331 -0.13345,-0.33073 z m -0.43678,-1.31988 c -0.0927,-0.14999 0.0135,-0.19434 0.24897,-0.10399 0.45837,0.17589 0.54224,0.36554 0.16165,0.36554 -0.13693,0 -0.32171,-0.1177 -0.41062,-0.26155 z m -5.27146,-1.7607 c -0.23576,-0.6144 -0.10013,-0.63118 0.48724,-0.0603 0.42122,0.4094 0.43756,0.49503 0.0944,0.49503 -0.22817,0 -0.48993,-0.19564 -0.58169,-0.43475 z m 0.11022,-1.15275 c 0,-0.14552 0.12609,-0.26459 0.28019,-0.26459 0.15411,0 0.20662,0.11907 0.11668,0.26459 -0.0899,0.14552 -0.21602,0.26458 -0.2802,0.26458 -0.0642,0 -0.11667,-0.11906 -0.11667,-0.26458 z m -0.79375,-1.33853 c 0,-0.15411 0.11906,-0.20662 0.26458,-0.11668 0.14552,0.0899 0.26458,0.21603 0.26458,0.2802 0,0.0642 -0.11906,0.11667 -0.26458,0.11667 -0.14552,0 -0.26458,-0.12608 -0.26458,-0.28019 z m -5.37053,-1.16866 c -0.26119,-0.19099 -0.73726,-0.29213 -1.05792,-0.22475 -0.51857,0.10897 -0.5316,0.0897 -0.1179,-0.17459 0.25582,-0.16341 0.58324,-0.22411 0.72761,-0.13489 0.14437,0.0892 0.26249,0.0399 0.26249,-0.10966 0,-0.14955 0.18857,-0.19953 0.41906,-0.11109 0.30361,0.11651 0.33181,0.21473 0.10235,0.35654 -0.23745,0.14675 -0.22645,0.2278 0.044,0.32384 0.19837,0.0704 0.30095,0.19419 0.22796,0.27497 -0.073,0.0808 -0.34641,-0.009 -0.60761,-0.20037 z m 2.08025,-0.2162 c 0.0994,-0.26094 0.2473,-0.40778 0.32876,-0.32632 0.0815,0.0815 1.7e-4,0.29495 -0.18065,0.47443 -0.26131,0.25936 -0.2917,0.22897 -0.14811,-0.14811 z m -1.43045,-1.24536 c 0,-0.3638 0.0601,-0.51263 0.13346,-0.33073 0.0734,0.1819 0.0734,0.47956 0,0.66146 -0.0734,0.1819 -0.13346,0.0331 -0.13346,-0.33073 z m -0.69193,0.0183 c -0.0837,-0.13547 -0.0312,-0.32109 0.11667,-0.41249 0.1479,-0.0914 0.2689,0.0194 0.2689,0.2463 0,0.46475 -0.15876,0.53318 -0.38557,0.16619 z m -0.84428,-0.21939 c 0.0961,-0.15557 0.0252,-0.34316 -0.15756,-0.41686 -0.2379,-0.0959 -0.24281,-0.13994 -0.0173,-0.15489 0.45531,-0.0302 0.67403,0.43804 0.30978,0.66316 -0.18464,0.11412 -0.23916,0.0772 -0.13496,-0.0914 z m 3.23124,-0.14103 c 0.0994,-0.26094 0.2473,-0.40778 0.32877,-0.32632 0.0815,0.0815 1.6e-4,0.29495 -0.18066,0.47443 -0.2613,0.25936 -0.2917,0.22897 -0.14811,-0.14811 z m -2.53055,-0.7162 c 0,-0.14552 0.18562,-0.26458 0.41249,-0.26458 0.22687,0 0.3389,0.11906 0.24897,0.26458 -0.0899,0.14553 -0.27556,0.26459 -0.41249,0.26459 -0.13694,0 -0.24897,-0.11906 -0.24897,-0.26459 z m -1.32292,-1.60311 c 0,-0.15411 0.11906,-0.20661 0.26458,-0.11668 0.14552,0.0899 0.26459,0.21603 0.26459,0.2802 0,0.0642 -0.11907,0.11668 -0.26459,0.11668 -0.14552,0 -0.26458,-0.12609 -0.26458,-0.2802 z m -2.38125,-0.49355 c 0,-0.12538 0.17859,-0.2965 0.39688,-0.38027 0.21828,-0.0838 0.39687,-0.0497 0.39687,0.0757 0,0.12539 -0.17859,0.29651 -0.39687,0.38027 -0.21829,0.0838 -0.39688,0.0497 -0.39688,-0.0757 z m -0.38709,-1.59167 c -0.0953,-0.15423 -0.0174,-0.2842 0.17304,-0.28883 0.22102,-0.005 0.16922,-0.1426 -0.14317,-0.37927 -0.26924,-0.20397 -0.41104,-0.49784 -0.31512,-0.65304 0.27961,-0.45242 0.67214,-0.32494 0.48678,0.15809 -0.10872,0.28331 -0.0651,0.3761 0.12232,0.26026 0.4548,-0.28108 0.5834,0.17948 0.19747,0.70727 -0.21965,0.30039 -0.41194,0.37251 -0.52132,0.19552 z m -1.20041,-1.60333 c 0,-0.14552 0.17859,-0.26459 0.39688,-0.26459 0.21828,0 0.39687,0.11907 0.39687,0.26459 0,0.14552 -0.17859,0.26458 -0.39687,0.26458 -0.21829,0 -0.39688,-0.11906 -0.39688,-0.26458 z m -1.83119,-0.68351 c 0.0127,-0.30822 0.0754,-0.37092 0.15985,-0.15985 0.0764,0.19099 0.067,0.4192 -0.0209,0.50712 -0.0879,0.0879 -0.15045,-0.0684 -0.13896,-0.34727 z m -1.34381,-0.37483 c 0,-0.14552 0.11906,-0.26458 0.26458,-0.26458 0.14552,0 0.26459,0.11906 0.26459,0.26458 0,0.14553 -0.11907,0.26459 -0.26459,0.26459 -0.14552,0 -0.26458,-0.11906 -0.26458,-0.26459 z m 2.95219,-0.26458 c 0,-0.3638 0.0601,-0.51263 0.13346,-0.33073 0.0734,0.1819 0.0734,0.47956 0,0.66146 -0.0734,0.1819 -0.13346,0.0331 -0.13346,-0.33073 z m -2.80276,-0.50144 c -0.0805,-0.13027 0.0255,-0.3028 0.23549,-0.3834 0.25473,-0.0978 0.3329,-0.0189 0.23476,0.23686 -0.17056,0.44445 -0.26747,0.47465 -0.47025,0.14654 z m -1.60464,-2.14439 c 0.0899,-0.14552 0.21603,-0.26459 0.2802,-0.26459 0.0642,0 0.11668,0.11907 0.11668,0.26459 0,0.14552 -0.12609,0.26458 -0.2802,0.26458 -0.15411,0 -0.20661,-0.11906 -0.11668,-0.26458 z m -6.35957,-0.80924 c -0.10117,-0.1637 -0.5034,-0.20753 -0.968,-0.10549 -0.74258,0.1631 -0.78147,0.13365 -0.59091,-0.44753 0.11219,-0.34216 0.19097,-0.83048 0.17507,-1.08514 -0.0332,-0.53118 0.25834,-0.5808 1.08008,-0.18384 0.55596,0.26857 0.55855,0.26365 0.0681,-0.12956 -0.28041,-0.2248 -0.42799,-0.4906 -0.32793,-0.59065 0.10005,-0.10006 0.42342,0.0773 0.7186,0.39414 0.48589,0.52155 0.40698,0.69092 -0.29116,0.62495 -0.0802,-0.008 -0.29892,0.23149 -0.48613,0.53126 -0.31974,0.51198 -0.29124,0.53781 0.47007,0.42608 0.64973,-0.0954 0.75283,-0.0495 0.51989,0.23116 -0.22488,0.27095 -0.1686,0.35011 0.24895,0.35011 0.29673,0 0.58711,-0.14281 0.64529,-0.31735 0.0662,-0.1985 0.17041,-0.14896 0.27833,0.13229 0.13801,0.35964 0.0185,0.44964 -0.59728,0.44964 -0.42341,0 -0.84773,-0.12603 -0.94293,-0.28007 z m 1.46478,-1.25686 c 0,-0.48617 0.14946,-0.57974 0.92604,-0.57974 0.50933,0 0.92604,0.12609 0.92604,0.2802 0,0.15411 -0.10658,0.21433 -0.23685,0.13381 -0.13028,-0.0805 -0.30513,0.0315 -0.38858,0.24897 -0.21605,0.56302 -0.78969,0.49755 -0.59285,-0.0677 0.13442,-0.38598 0.0951,-0.37756 -0.23627,0.0506 -0.38896,0.50252 -0.39753,0.50109 -0.39753,-0.0661 z m 2.98187,-0.17608 c -0.26483,-0.30108 -0.2361,-0.36324 0.15434,-0.33383 0.26387,0.0199 0.47976,0.19089 0.47976,0.38003 0,0.43892 -0.22159,0.42278 -0.6341,-0.0462 z m -6.41732,-1.74176 c -0.50706,-0.28269 -0.73923,-0.51398 -0.51594,-0.51398 0.22329,0 0.54885,0.14288 0.72347,0.3175 0.24695,0.24695 0.3175,0.24695 0.3175,0 0,-0.54086 0.41421,-0.34877 0.45642,0.21167 0.0219,0.29104 0.0175,0.52233 -0.01,0.51398 -0.0273,-0.008 -0.46456,-0.24648 -0.97161,-0.52917 z m -2.38538,-0.39908 c 0,-0.44149 0.60358,-1.17323 0.96775,-1.17323 0.35232,0 0.36422,0.0672 0.0739,0.41704 -0.28685,0.34562 -0.28107,0.4582 0.0337,0.65741 0.2816,0.17818 0.19164,0.24141 -0.34774,0.24441 -0.40018,0.002 -0.7276,-0.0633 -0.7276,-0.14563 z m -2.00824,-0.99928 c 0.11172,-0.34399 0.002,-0.52833 -0.37192,-0.62617 -0.62596,-0.16369 -0.71192,-0.60612 -0.11777,-0.60612 0.22687,0 0.34662,-0.10658 0.2661,-0.23685 -0.0805,-0.13028 0.0255,-0.30281 0.2355,-0.3834 0.24735,-0.0949 0.3329,-0.0189 0.24284,0.21578 -0.0974,0.25374 0.0493,0.34164 0.48952,0.29332 0.45685,-0.0502 0.63898,0.0695 0.66674,0.43795 0.0306,0.40579 -0.0357,0.44562 -0.33216,0.19959 -0.37478,-0.31104 -1.03182,-0.12325 -0.81218,0.23213 0.0655,0.10604 -0.003,0.3657 -0.15293,0.57703 -0.21773,0.30749 -0.24045,0.28686 -0.11374,-0.10326 z m -1.95272,-1.90703 c -0.503035,-0.27572 -0.700254,-0.28498 -0.855843,-0.0402 -0.153862,0.24206 -0.203148,0.23747 -0.206231,-0.0192 -0.0057,-0.47618 1.326894,-0.95115 1.679454,-0.59859 0.18949,0.18949 0.16614,0.27441 -0.0755,0.27441 -0.28102,0 -0.28506,0.0781 -0.0205,0.39688 0.38497,0.46386 0.34742,0.4629 -0.52137,-0.0133 z m 1.38127,-0.29423 c -0.46069,-0.18589 -0.41442,-0.61853 0.0662,-0.61853 0.21828,0 0.39687,0.1786 0.39687,0.39688 0,0.21828 -0.0298,0.38748 -0.0661,0.37599 -0.0364,-0.0115 -0.21498,-0.0809 -0.39688,-0.15434 z m 1.52135,-0.50185 c 0,-0.22687 0.11907,-0.3389 0.26459,-0.24897 0.14552,0.0899 0.26458,0.27556 0.26458,0.41249 0,0.13694 -0.11906,0.24897 -0.26458,0.24897 -0.14552,0 -0.26459,-0.18562 -0.26459,-0.41249 z m -0.59972,-0.94326 c 0.17948,-0.18082 0.39297,-0.26211 0.47443,-0.18065 0.0815,0.0815 -0.0654,0.22941 -0.32632,0.32877 -0.37708,0.14358 -0.40747,0.11319 -0.14811,-0.14812 z m 3.64243,-1.55467 c -0.0899,-0.14552 -0.0374,-0.26458 0.11668,-0.26458 0.15411,0 0.2802,0.11906 0.2802,0.26458 0,0.14553 -0.0525,0.26459 -0.11668,0.26459 -0.0642,0 -0.19026,-0.11906 -0.2802,-0.26459 z m 1.93477,0.0838 c 0.19099,-0.0764 0.4192,-0.067 0.50712,0.0209 0.0879,0.0879 -0.0683,0.15045 -0.34727,0.13896 -0.30822,-0.0127 -0.37092,-0.0754 -0.15985,-0.15985 z m 51.92289,-30.737546 c 1.82145,-5.658037 3.63642,-10.868006 3.66819,-10.529728 0.0343,0.365686 -0.81851,3.192964 -1.05162,3.486168 -0.11825,0.148745 -0.44983,1.117851 -0.73684,2.153567 -0.28702,1.035717 -0.64677,2.116556 -0.79947,2.401865 -0.15269,0.285309 -0.51974,1.392479 -0.81567,2.460379 -0.29593,1.067899 -0.65176,2.055334 -0.79072,2.1943 -0.13897,0.138966 0.0978,-0.835982 0.52613,-2.166551 z m 3.7045,-10.885882 c -0.002,-0.298487 3.13143,-8.840607 3.14499,-8.574123 0.0179,0.351238 -2.54527,7.681675 -2.89546,8.280852 -0.1368,0.23406 -0.24909,0.366032 -0.24953,0.293271 z m 3.42784,-9.591145 c 0.0207,-0.385717 1.29879,-3.927476 1.30754,-3.62325 0.0134,0.466822 -1.03743,3.689396 -1.20308,3.689396 -0.0594,0 -0.10641,-0.02977 -0.10446,-0.06615 z m 0.86761,-5.4996 c -0.16256,-0.430677 -0.4846,-0.842851 -0.71565,-0.915943 -0.23105,-0.07309 -0.61572,-0.195228 -0.85483,-0.271414 -0.23911,-0.07619 -0.37104,-0.202223 -0.29318,-0.280083 0.0779,-0.07786 0.56691,0.03616 1.08679,0.253376 0.63172,0.263953 1.00276,0.624188 1.1187,1.086154 0.2451,0.976557 0.0115,1.063971 -0.34183,0.12791 z" id="path2"></path><path style="fill:#000000;fill-opacity:1" d="m 52.342702,237.6324 c -0.915974,-0.44468 -1.365635,-1.22133 -1.365635,-2.35873 0,-0.66891 1.045,-3.3745 1.231372,-3.18813 0.05552,0.0555 -0.136678,0.62469 -0.42711,1.26482 -0.711715,1.56867 -0.684308,2.68602 0.0879,3.58377 0.488121,0.56747 0.845761,0.72343 1.609378,0.70178 1.196694,-0.0339 1.403471,-0.22103 4.779318,-4.32479 2.942699,-3.57722 13.169,-15.6681 14.652143,-17.3237 0.524398,-0.58537 1.84642,-2.06913 2.937826,-3.29725 7.598636,-8.55042 16.085657,-16.90013 22.357291,-21.99558 3.827275,-3.1095 9.657295,-7.49753 9.657295,-7.26866 0,0.0689 -1.39898,1.16696 -3.10885,2.44015 -1.70987,1.2732 -3.28746,2.46892 -3.50573,2.65715 -0.21828,0.18824 -1.349382,1.12569 -2.513549,2.08322 -1.164166,0.95754 -2.414322,2.00302 -2.778125,2.3233 -3.997853,3.5196 -5.412519,4.84253 -8.971616,8.38986 -5.082797,5.06599 -8.658434,8.90314 -13.450681,14.43441 -2.029257,2.34219 -3.916343,4.49867 -4.193525,4.79216 -0.736713,0.78008 -2.979197,3.39556 -3.636956,4.2419 -0.312178,0.40168 -2.418947,2.93417 -4.681708,5.62776 -2.262762,2.6936 -4.400719,5.2851 -4.751018,5.75891 -1.196942,1.61895 -2.556526,2.12348 -3.928025,1.45765 z m 0.13415,-6.55775 c 0.08954,-0.43656 0.368756,-1.21046 0.620477,-1.71979 0.25172,-0.50932 0.548013,-1.2237 0.658429,-1.5875 0.110416,-0.3638 0.419957,-1.13771 0.687869,-1.71979 0.267912,-0.58208 0.782342,-1.83224 1.143177,-2.77812 0.360835,-0.94589 0.661884,-1.57543 0.668997,-1.39899 0.01434,0.35582 -1.010011,3.23113 -1.299615,3.64794 -0.101108,0.14553 -0.398967,0.8599 -0.66191,1.5875 -0.48145,1.33225 -1.113282,2.87843 -1.675862,4.10105 -0.296022,0.64332 -0.299903,0.6397 -0.141562,-0.1323 z M 56.7979,220.43544 c 0,-0.29625 0.530756,-1.67043 1.306906,-3.3837 0.263696,-0.58209 0.557201,-1.41785 0.652234,-1.85726 0.09503,-0.43941 0.420037,-1.15378 0.722231,-1.5875 0.64989,-0.93274 0.657063,-0.95521 -1.099509,3.44476 -1.383032,3.4643 -1.581862,3.88961 -1.581862,3.3837 z m 3.285394,-8.41079 c 0.101659,-0.43656 0.397555,-1.21046 0.657547,-1.71979 0.259992,-0.50932 0.688091,-1.58088 0.951332,-2.38125 0.263242,-0.80036 0.625449,-1.69333 0.804905,-1.98437 0.179457,-0.29104 0.534122,-1.18401 0.788145,-1.98438 0.254024,-0.80036 0.559657,-1.57982 0.679184,-1.73214 0.205401,-0.26174 1.17049,-2.7983 2.411291,-6.33765 0.474291,-1.3529 1.270118,-2.91949 1.270118,-2.50023 0,0.1964 -1.550979,4.22866 -1.994774,5.18605 -0.212562,0.45856 -0.386476,0.9114 -0.386476,1.00632 0,0.25193 -5.065499,12.95245 -5.228381,13.1089 -0.07575,0.0728 -0.05455,-0.22489 0.04711,-0.66146 z m 7.977234,-20.36373 c 0.08422,-0.43152 0.369896,-1.26495 0.63483,-1.85209 0.264933,-0.58713 0.689549,-1.81489 0.943591,-2.72836 0.254041,-0.91347 0.513263,-1.60949 0.576049,-1.5467 0.157107,0.1571 -0.973859,3.94141 -1.270939,4.25266 -0.13195,0.13824 -0.24528,0.4359 -0.251844,0.66145 -0.0066,0.22556 -0.185833,0.7673 -0.398376,1.20386 l -0.386443,0.79375 z m 2.909235,-8.21126 c 0.262046,-1.43494 0.714858,-2.91547 0.809214,-2.64584 0.05092,0.14552 -0.142932,0.97896 -0.43079,1.85209 -0.287857,0.87312 -0.458148,1.23031 -0.378424,0.79375 z m 37.157297,-0.20499 c 0,-0.14929 4.84865,-3.35528 6.08542,-4.02376 1.0239,-0.55342 -0.35931,0.45683 -2.77812,2.02905 -3.03422,1.97223 -3.3073,2.13693 -3.3073,1.99471 z m -35.910486,-3.89606 c 0.08101,-0.3638 0.349267,-1.59064 0.596138,-2.72632 0.24687,-1.13568 0.498843,-2.01488 0.55994,-1.95378 0.139339,0.13933 -0.934914,5.00893 -1.147289,5.20066 -0.08584,0.0775 -0.08979,-0.15675 -0.0088,-0.52056 z m 42.849506,-0.68228 c 0.25119,-0.26227 0.51367,-0.41989 0.58328,-0.35028 0.0696,0.0696 -0.13592,0.28418 -0.45672,0.47683 -0.5573,0.33468 -0.56294,0.32904 -0.12656,-0.12655 z m 0.99848,-0.48972 c 0,-0.0728 0.23813,-0.25974 0.52917,-0.4155 0.29104,-0.15576 0.52917,-0.22367 0.52917,-0.15091 0,0.0728 -0.23813,0.25974 -0.52917,0.4155 -0.29104,0.15576 -0.52917,0.22367 -0.52917,0.15091 z m 1.60955,-1.04443 c 0.27062,-0.24491 2.3592,-1.22016 2.3592,-1.10161 0,0.1504 -1.99677,1.20138 -2.28251,1.20138 -0.10281,0 -0.13732,-0.0449 -0.0767,-0.0998 z m 3.41754,-1.8088 c 0.33226,-0.35363 1.85208,-0.98953 1.85208,-0.77492 0,0.13229 -0.20836,0.30043 -0.46302,0.37365 -0.25466,0.0732 -0.70115,0.22514 -0.99219,0.3376 -0.29104,0.11246 -0.46963,0.14111 -0.39687,0.0637 z m 3.175,-1.66331 c 0.3638,-0.20797 0.78052,-0.37812 0.92604,-0.37812 0.14552,0 -0.0331,0.17015 -0.39688,0.37812 -0.3638,0.20797 -0.78052,0.37813 -0.92604,0.37813 -0.14552,0 0.0331,-0.17016 0.39688,-0.37813 z m -50.51453,-0.55121 c 0.0127,-0.30823 0.07539,-0.37092 0.159853,-0.15986 0.07643,0.191 0.06703,0.4192 -0.02089,0.50712 -0.08792,0.0879 -0.150453,-0.0684 -0.138965,-0.34726 z m 0.290654,-1.03629 c -0.004,-0.29104 0.156678,-1.48166 0.356983,-2.64583 l 0.364192,-2.11667 -0.136372,1.71979 c -0.138955,1.75238 -0.571709,4.00398 -0.584803,3.04271 z m 53.398876,0.13229 c 0.21828,-0.14106 0.51593,-0.25648 0.66146,-0.25648 0.14552,0 0.086,0.11542 -0.1323,0.25648 -0.21828,0.14107 -0.51593,0.25648 -0.66145,0.25648 -0.14553,0 -0.086,-0.11541 0.13229,-0.25648 z m 4.6302,-1.85208 c 0.29105,-0.12506 0.70777,-0.22739 0.92605,-0.22739 0.25015,0 0.20125,0.0841 -0.1323,0.22739 -0.29104,0.12507 -0.70776,0.22739 -0.92604,0.22739 -0.25015,0 -0.20125,-0.0841 0.13229,-0.22739 z m 4.49792,-1.5875 c 0.29104,-0.12506 0.70776,-0.22739 0.92604,-0.22739 0.25016,0 0.20126,0.0841 -0.13229,0.22739 -0.29104,0.12507 -0.70776,0.22739 -0.92604,0.22739 -0.25016,0 -0.20125,-0.0841 0.13229,-0.22739 z m 5.10977,-1.50366 c 0.19099,-0.0764 0.4192,-0.067 0.50711,0.0209 0.0879,0.0879 -0.0683,0.15045 -0.34726,0.13897 -0.30823,-0.0127 -0.37092,-0.0754 -0.15985,-0.15986 z m 1.32291,-0.26458 c 0.191,-0.0764 0.4192,-0.067 0.50712,0.0209 0.0879,0.0879 -0.0684,0.15045 -0.34726,0.13896 -0.30823,-0.0127 -0.37092,-0.0754 -0.15986,-0.15985 z m 6.06888,-1.3174 c 0.1819,-0.0734 0.47956,-0.0734 0.66146,0 0.1819,0.0734 0.0331,0.13345 -0.33073,0.13345 -0.3638,0 -0.51263,-0.0601 -0.33073,-0.13345 z m 1.5875,-0.26459 c 0.1819,-0.0734 0.47956,-0.0734 0.66146,0 0.1819,0.0734 0.0331,0.13345 -0.33073,0.13345 -0.3638,0 -0.51263,-0.06 -0.33073,-0.13345 z m 20.17448,-1.25167 c 0,-0.0572 0.18478,-0.17489 0.41062,-0.26155 0.23546,-0.0904 0.34166,-0.046 0.24897,0.10398 -0.15538,0.25141 -0.65959,0.37186 -0.65959,0.15757 z m -95.442515,-1.21893 c 0,-0.65485 0.0516,-0.92274 0.114662,-0.59532 0.06306,0.32743 0.06306,0.86321 0,1.19063 -0.06306,0.32742 -0.114662,0.0595 -0.114662,-0.59531 z m 97.355985,-2.11667 c 0,-0.50932 0.0545,-0.71768 0.121,-0.46302 0.0665,0.25466 0.0665,0.67138 0,0.92604 -0.0666,0.25466 -0.121,0.0463 -0.121,-0.46302 z m -97.055202,-4.10104 c -3.04e-4,-2.47386 0.03946,-3.5215 0.08837,-2.3281 0.04891,1.19341 0.04916,3.21747 5.53e-4,4.49792 -0.04861,1.28045 -0.08862,0.30403 -0.08893,-2.16982 z m -0.321266,-6.08542 c 0.0054,-0.43656 0.06469,-0.58312 0.131774,-0.32569 0.06708,0.25743 0.06267,0.61462 -0.0098,0.79375 -0.07247,0.17913 -0.127362,-0.0315 -0.12197,-0.46806 z m -1.057619,-5.96714 c -0.180592,-1.05313 -0.280729,-1.96241 -0.222525,-2.02061 0.155438,-0.15544 0.771389,3.27386 0.652236,3.63132 -0.05575,0.16725 -0.249118,-0.55757 -0.429711,-1.61071 z m -1.283909,-4.36302 c -0.08617,-0.22456 -0.09755,-0.4674 -0.0253,-0.53966 0.07226,-0.0723 0.194881,0.11147 0.272499,0.40829 0.164875,0.63048 -0.01831,0.72784 -0.2472,0.13137 z m -1.778407,-4.23215 c -0.255317,-0.66535 -0.179999,-0.83702 0.131904,-0.30066 0.154434,0.26558 0.225054,0.53861 0.156932,0.60673 -0.06812,0.0681 -0.198098,-0.0696 -0.288836,-0.30607 z m -1.487895,-2.7679 c -0.15576,-0.29104 -0.22367,-0.52916 -0.150909,-0.52916 0.07276,0 0.259732,0.23812 0.415493,0.52916 0.155761,0.29105 0.22367,0.52917 0.15091,0.52917 -0.07276,0 -0.259733,-0.23812 -0.415494,-0.52917 z m -4.91993,-6.41614 -0.504028,-0.59531 0.595313,0.50402 c 0.559447,0.47367 0.715761,0.6866 0.504028,0.6866 -0.05021,0 -0.318097,-0.26789 -0.595313,-0.59531 z m -3.051318,-2.77813 c -0.329108,-0.41964 -0.319749,-0.429 0.09989,-0.0999 0.254661,0.19972 0.46302,0.40808 0.46302,0.46302 0,0.21776 -0.217272,0.0776 -0.562915,-0.36313 z M 56.7979,120.61111 c -0.238467,-0.1541 -0.271101,-0.25809 -0.08176,-0.26053 0.173313,-0.002 0.388699,0.11501 0.478636,0.26053 0.203016,0.32849 0.111422,0.32849 -0.396876,0 z m -5.629745,-9.00916 c 0.323379,-0.3403 0.63914,-0.56581 0.70169,-0.50114 0.06255,0.0647 -0.202033,0.34311 -0.587963,0.61873 l -0.70169,0.50113 z m 1.346802,-0.69658 c 0.190996,-0.0764 0.419199,-0.067 0.507118,0.0209 0.08792,0.0879 -0.06835,0.15046 -0.347265,0.13897 -0.308225,-0.0127 -0.37092,-0.0754 -0.159853,-0.15986 z m 3.563322,-0.0141 c 0.695615,-0.0547 1.767177,-0.054 2.38125,10e-4 0.614072,0.0555 0.04493,0.10023 -1.264754,0.0994 -1.309688,-8.1e-4 -1.812111,-0.0462 -1.116496,-0.10089 z m 9.517016,3.3e-4 c 0.691224,-0.0545 1.822318,-0.0545 2.513542,0 0.691224,0.0545 0.125677,0.0991 -1.256771,0.0991 -1.382448,0 -1.947995,-0.0446 -1.256771,-0.0991 z m 5.953125,-0.24534 c 0.181901,-0.0734 0.479557,-0.0734 0.661458,0 0.181901,0.0734 0.03307,0.13346 -0.330729,0.13346 -0.363802,0 -0.51263,-0.0601 -0.330729,-0.13346 z m 7.408333,-1.05833 c 0.181901,-0.0734 0.479557,-0.0734 0.661458,0 0.181901,0.0734 0.03307,0.13345 -0.330729,0.13345 -0.363802,0 -0.51263,-0.06 -0.330729,-0.13345 z m 1.5875,-0.26458 c 0.181901,-0.0734 0.479557,-0.0734 0.661458,0 0.181901,0.0734 0.03307,0.13345 -0.330729,0.13345 -0.363802,0 -0.51263,-0.0601 -0.330729,-0.13345 z m 6.101953,-1.32843 c 0.190996,-0.0764 0.419199,-0.067 0.507118,0.0209 0.08792,0.0879 -0.06835,0.15045 -0.347266,0.13896 -0.308224,-0.0127 -0.370919,-0.0754 -0.159852,-0.15985 z m 1.058333,-0.26459 c 0.190996,-0.0764 0.419199,-0.067 0.507118,0.0209 0.08792,0.0879 -0.06835,0.15046 -0.347266,0.13897 -0.308224,-0.0127 -0.370919,-0.0754 -0.159852,-0.15986 z" id="path1"></path></g></g></svg>