<?xml version="1.0" encoding="UTF-8" standalone="no"?>


<svg width="310mm" height="100mm" viewBox="0 0 310 100" version="1.1" id="svg1" xml:space="preserve" xmlns:inkscape="http://www.inkscape.org/namespaces/inkscape" inkscape:version="1.4 (e7c3feb1, 2024-10-09)" xmlns:sodipodi-0.dtd="http://sodipodi.sourceforge.net/DTD/sodipodi-0.dtd" sodipodi-0.dtd:docname="유쳐텍스트.svg" xmlns:inkscape="http://www.inkscape.org/namespaces/inkscape" xmlns:sodipodi="http://sodipodi.sourceforge.net/DTD/sodipodi-0.dtd" xmlns="http://www.w3.org/2000/svg" xmlns:svg="http://www.w3.org/2000/svg"><namedview id="namedview1" pagecolor="#ffffff" bordercolor="#000000" borderopacity="0.25" inkscape:showpageshadow="2" inkscape:pageopacity="0.0" inkscape:pagecheckerboard="0" inkscape:deskcolor="#d1d1d1" inkscape:document-units="mm" inkscape:zoom="0.51220552" inkscape:cx="405.11082" inkscape:cy="573.01218" inkscape:window-width="1512" inkscape:window-height="916" inkscape:window-x="0" inkscape:window-y="38" inkscape:window-maximized="1" inkscape:current-layer="layer1"></namedview><defs id="defs1"></defs><g inkscape:label="Layer 1" inkscape:groupmode="layer" id="layer1"><g id="g1" transform="matrix(2.5786029,0,0,2.5786029,-163.43519,-268.10646)" style="fill:#000000"><path style="fill:#000000" d="m 119.9451,141.62625 c -4.76986,-0.84725 -8.00314,-3.9385 -9.26015,-8.85338 -0.47475,-1.85623 -0.52943,-2.93473 -0.52943,-10.44147 0,-6.15833 0.0839,-8.45536 0.3175,-8.68893 0.44642,-0.44642 5.39611,-0.43491 5.68615,0.0132 0.11773,0.1819 0.27359,4.20026 0.34635,8.92969 0.13104,8.51767 0.13854,8.61144 0.79375,9.92011 0.94781,1.89311 2.43044,2.85654 4.60948,2.99529 2.08475,0.13275 3.18766,-0.2149 4.64838,-1.46522 2.07037,-1.77216 2.10681,-1.97038 2.11341,-11.49743 0.005,-7.2617 0.0614,-8.43718 0.42159,-8.7974 0.31826,-0.31826 0.9853,-0.41482 2.84427,-0.41172 1.33567,0.002 2.60709,0.11681 2.82537,0.25463 0.3327,0.21005 0.41057,1.37526 0.4816,7.20584 0.10354,8.49994 -0.17096,11.19847 -1.41351,13.89596 -2.40909,5.22996 -7.94288,7.99622 -13.88476,6.9408 z m -47.133878,-0.60369 c -0.96681,-0.32955 -2.257333,-0.94533 -2.86783,-1.3684 -2.395871,-1.66034 -4.421833,-4.77447 -5.079883,-7.80836 -0.412025,-1.8996 -0.333942,-17.66343 0.09002,-18.17428 0.315706,-0.3804 5.38101,-0.51199 5.607407,-0.14567 0.06828,0.11049 0.203603,4.00978 0.300709,8.66511 0.158911,7.61825 0.228813,8.58322 0.699399,9.65484 1.079959,2.45931 2.968817,3.6928 5.653846,3.69218 2.255853,-5.3e-4 3.93537,-0.95291 5.090714,-2.88672 l 0.862411,-1.44351 v -8.42961 c 0,-5.30478 0.101531,-8.61934 0.273892,-8.9414 0.242188,-0.45253 0.571432,-0.5113 2.844271,-0.50772 1.413708,0.002 2.748972,0.11683 2.967254,0.25467 0.335282,0.21173 0.408919,1.46942 0.474481,8.10392 0.10461,10.58592 -0.350324,12.74888 -3.376768,16.05466 -2.525594,2.7587 -5.233307,3.89708 -9.243822,3.88629 -1.929747,-0.005 -2.959687,-0.15048 -4.296103,-0.606 z m 28.654168,0.19228 c -4.341136,-0.95015 -7.740618,-4.28118 -8.895957,-8.71683 -0.336601,-1.29229 -0.405583,-3.6762 -0.405583,-14.01634 0,-9.33771 0.07955,-12.53874 0.317501,-12.7767 0.458173,-0.45817 5.343507,-0.43201 5.727501,0.0307 0.168135,0.20259 0.319972,1.83442 0.363126,3.9026 l 0.07416,3.55443 4.082552,0.0733 c 2.46074,0.0442 4.22127,0.18843 4.43177,0.36313 0.48873,0.40561 0.48873,5.07155 0,5.47716 -0.2105,0.1747 -1.97103,0.31895 -4.43177,0.36313 l -4.082552,0.0733 v 5.68854 c 0,5.31889 0.03701,5.75732 0.569564,6.74688 1.192508,2.21584 2.781048,3.08978 5.912728,3.2529 1.23693,0.0644 2.39779,0.23667 2.57969,0.38275 0.36291,0.29144 0.47101,4.6088 0.12824,5.12213 -0.63786,0.95528 -3.28534,1.15432 -6.37097,0.47896 z m 62.13596,-0.1816 c -2.33116,-0.79768 -3.81783,-1.71806 -5.60767,-3.47164 -6.52071,-6.38863 -5.54952,-17.30439 2.00234,-22.50555 2.34156,-1.6127 4.8527,-2.33551 8.10325,-2.33247 4.33735,0.004 7.28391,1.26764 10.22413,4.38443 2.63949,2.798 4.06337,6.39501 4.06337,10.26492 0,2.48783 0.63301,2.35621 -11.33177,2.35621 h -10.36406 v 0.6377 c 0,0.91397 1.81505,3.08234 3.46792,4.14298 1.37073,0.8796 1.49732,0.90786 4.06665,0.90786 2.30314,0 2.82407,-0.087 3.96117,-0.66146 0.72011,-0.3638 1.79168,-1.11893 2.38125,-1.67807 1.93509,-1.83517 2.08917,-1.82576 4.57769,0.27936 0.96927,0.81993 1.38907,1.36853 1.38907,1.81528 0,1.51048 -4.51197,4.99151 -7.70145,5.94173 -2.53942,0.75656 -6.89546,0.71821 -9.23189,-0.0813 z m 11.76916,-17.11717 c 0.24111,-0.39012 -0.49544,-1.61429 -1.62704,-2.70418 -2.79003,-2.68719 -7.18018,-3.13277 -10.27554,-1.04292 -1.06757,0.72077 -2.77699,2.95956 -2.77699,3.63694 0,0.304 1.24603,0.36698 7.26042,0.36698 4.40844,0 7.32278,-0.10088 7.41915,-0.25682 z m -37.20581,17.08927 -0.62481,-0.31139 -0.0702,-7.60644 c -0.0765,-8.2894 0.0823,-9.69145 1.41782,-12.51445 0.37739,-0.79775 1.33319,-2.14931 2.12398,-3.00346 2.63261,-2.84353 5.43601,-4.16228 9.41929,-4.43093 3.06744,-0.20688 3.11642,-0.16029 3.11642,2.96443 0,1.64359 -0.10875,2.53445 -0.33073,2.7094 -0.1819,0.14336 -1.08596,0.33586 -2.00902,0.42779 -2.99309,0.29808 -5.42898,1.84063 -6.74465,4.27114 -0.5456,1.0079 -0.57672,1.43874 -0.65323,9.04136 -0.0583,5.79639 -0.16704,8.05157 -0.39688,8.23329 -0.51404,0.40641 -4.53532,0.57442 -5.24798,0.21926 z" id="path5"></path><path style="fill:#000000" d="m 73.324907,140.85995 c -3.331178,-1.06511 -5.712013,-3.20913 -7.307603,-6.58072 l -0.963786,-2.03655 -0.09409,-9.01032 c -0.08078,-7.73562 -0.03836,-9.05656 0.299835,-9.33724 0.264543,-0.21955 1.162902,-0.3017 2.735194,-0.2501 l 2.341269,0.0768 0.135696,8.46666 c 0.125861,7.85297 0.175568,8.55297 0.685757,9.65729 1.278484,2.76733 3.100716,3.96875 6.019498,3.96875 2.04005,0 3.270294,-0.50985 4.572657,-1.89504 1.691278,-1.79884 1.683267,-1.74677 1.683267,-10.9415 0,-5.26017 0.101659,-8.55486 0.273893,-8.87668 0.238908,-0.44641 0.568408,-0.51126 2.579687,-0.50772 1.268188,0.002 2.455436,0.0991 2.63833,0.21516 0.253162,0.16073 0.347891,2.19644 0.396875,8.52876 0.05567,7.19628 0.0028,8.54004 -0.392165,9.96723 -1.592969,5.7562 -6.000191,9.09154 -11.960788,9.05182 -1.300321,-0.009 -2.724541,-0.2028 -3.643525,-0.49663 z m 44.595433,-0.11105 c -3.78643,-1.4322 -6.1535,-4.38759 -7.09361,-8.85672 -0.52608,-2.50093 -0.60029,-17.47397 -0.0891,-17.98513 0.19865,-0.19864 1.18562,-0.3175 2.63653,-0.3175 2.02196,0 2.35411,0.0656 2.59291,0.51178 0.17157,0.32057 0.27389,3.51559 0.27389,8.55182 0,8.92221 0.11713,9.72305 1.65156,11.2925 3.26248,3.33694 8.83436,2.24765 10.74101,-2.09985 0.34174,-0.77921 0.39475,-2.21211 0.33437,-9.0375 -0.0496,-5.6093 0.0196,-8.28224 0.22455,-8.6651 0.26449,-0.49421 0.5344,-0.55365 2.51431,-0.55365 1.21991,0 2.40634,0.0723 2.63652,0.1606 0.36928,0.14171 0.41852,1.13352 0.41852,8.43056 0,4.54847 -0.11289,8.86523 -0.25087,9.59279 -0.66448,3.50378 -3.23977,6.82249 -6.5743,8.47215 -1.94803,0.96372 -2.10058,0.99471 -5.19765,1.05592 -2.792,0.0552 -3.39415,-0.0139 -4.81861,-0.55267 z m 46.47476,0.2424 c -4.53906,-1.26639 -8.1248,-4.73445 -9.71357,-9.39478 -0.7382,-2.16537 -0.8293,-6.29158 -0.18766,-8.50009 0.94813,-3.26344 4.06981,-7.10704 6.94735,-8.55401 3.30421,-1.66151 8.12416,-2.02112 11.26157,-0.8402 2.88024,1.08412 5.20017,2.87024 6.82023,5.2509 1.21338,1.78307 1.7226,3.06557 2.2301,5.61664 0.46402,2.33251 0.4676,3.60057 0.0119,4.22372 -0.33772,0.46186 -0.90453,0.48516 -10.43376,0.42889 -10.92766,-0.0645 -11.35824,-0.0166 -11.04523,1.23058 0.24503,0.97626 1.5998,2.85767 2.59493,3.60366 1.8899,1.41673 2.94386,1.75794 5.43005,1.75794 2.08783,0 2.52873,-0.0895 3.95835,-0.80393 0.88485,-0.44217 2.08049,-1.2756 2.65697,-1.85209 1.40403,-1.40402 1.95802,-1.35416 3.8593,0.34738 1.87423,1.67732 1.85625,1.9385 -0.26704,3.87906 -1.82781,1.67052 -4.2455,3.02803 -6.35651,3.56913 -1.93322,0.49553 -6.05353,0.51527 -7.76702,0.0372 z m 11.28696,-16.96519 c 0.22584,-0.5885 -0.66584,-2.12754 -1.8625,-3.21469 -3.13728,-2.85018 -7.79275,-3.04924 -11.16463,-0.47738 -0.96906,0.73914 -2.22858,2.74843 -2.22858,3.55523 0,0.54174 0.089,0.5482 7.54893,0.5482 6.58421,0 7.5691,-0.0526 7.70678,-0.41136 z m -74.5896,16.79286 c -2.533591,-0.59712 -5.197986,-2.54008 -6.681181,-4.87212 -1.854043,-2.91513 -1.817933,-2.60029 -1.921584,-16.75443 -0.07012,-9.57582 -0.01501,-12.88042 0.219535,-13.16303 0.403749,-0.48648 4.746134,-0.53624 5.222537,-0.0598 0.212297,0.2123 0.3175,1.38867 0.3175,3.55024 0,1.778 0.07227,3.42107 0.1606,3.65125 0.136694,0.35622 0.758944,0.41851 4.180413,0.41851 2.77375,0 4.11824,0.0984 4.33732,0.3175 0.45297,0.45297 0.4266,4.55425 -0.0317,4.93463 -0.21049,0.17469 -1.97102,0.31894 -4.43177,0.36312 l -4.082541,0.0733 -0.07168,5.37513 c -0.07814,5.85962 0.06225,6.81687 1.237747,8.4396 1.113694,1.53741 2.826554,2.2946 5.448514,2.40859 2.59476,0.11281 2.77813,0.29514 2.77813,2.76235 0,2.78717 -0.0667,2.84742 -3.11817,2.81587 -1.4137,-0.0146 -3.01734,-0.13192 -3.56364,-0.26067 z m 36.74032,-0.39585 c -0.0883,-0.23018 -0.16059,-3.66395 -0.16059,-7.63059 0,-8.04804 0.27822,-9.96987 1.83804,-12.69615 0.88964,-1.55492 3.66103,-4.33795 5.01925,-5.0403 2.63202,-1.36108 7.4576,-2.21233 8.34873,-1.47276 0.52202,0.43323 0.58327,4.56234 0.0737,4.96574 -0.1819,0.144 -1.0586,0.3244 -1.94823,0.40091 -3.07801,0.2647 -5.82642,2.13126 -7.01763,4.76597 -0.61601,1.36249 -0.62429,1.49434 -0.55853,8.89578 0.0468,5.26543 -0.0223,7.62005 -0.23084,7.87135 -0.46198,0.55666 -5.14734,0.50429 -5.36386,-0.0599 z" id="path4"></path><path style="fill:#000000" d="m 119.9451,141.20431 c -3.7258,-0.73193 -6.95773,-3.45181 -8.35833,-7.03408 l -0.75364,-1.92755 -0.0927,-9.0428 c -0.0878,-8.56588 -0.067,-9.05656 0.39466,-9.30361 0.49755,-0.26628 4.1222,-0.1907 4.58548,0.0956 0.15548,0.0961 0.25574,3.29669 0.25574,8.16422 0,9.09649 0.14047,10.02185 1.80087,11.86348 1.29427,1.43554 2.69486,2.04649 4.70816,2.05374 1.2348,0.004 1.91892,-0.15533 2.91042,-0.67971 1.67049,-0.88348 2.12463,-1.30353 2.97724,-2.75374 l 0.70019,-1.19095 0.13229,-8.73125 0.13229,-8.73125 2.49143,-0.0767 c 1.81482,-0.0558 2.55023,0.016 2.70793,0.26459 0.29829,0.47015 0.26583,14.18566 -0.0391,16.53287 -0.53224,4.0966 -3.12772,7.74031 -6.75699,9.48592 -1.65476,0.79591 -2.19444,0.91836 -4.50717,1.02263 -1.44503,0.0652 -2.92498,0.06 -3.28878,-0.0115 z m -47.250576,-0.7242 c -1.879845,-0.69889 -2.750372,-1.28637 -4.235094,-2.85811 -3.167767,-3.35342 -3.747859,-6.46249 -3.348567,-17.94703 l 0.197778,-5.68854 h 2.513542 2.513542 l 0.132291,8.59896 0.132292,8.59896 0.786971,1.42087 c 1.263473,2.28121 3.249589,3.47852 5.752969,3.46811 2.435395,-0.0101 4.669036,-1.37089 5.853563,-3.56607 0.543338,-1.00692 0.577507,-1.48249 0.703373,-9.78958 l 0.132291,-8.73125 2.491431,-0.0767 c 1.814821,-0.0558 2.550225,0.016 2.707927,0.26459 0.378645,0.59681 0.250839,15.75059 -0.147923,17.53915 -0.992887,4.45339 -3.596816,7.45278 -7.693902,8.86239 -2.236162,0.76935 -6.288377,0.72364 -8.492484,-0.0958 z m 28.666266,0.21393 c -0.83527,-0.20245 -1.980406,-0.60364 -2.54474,-0.89155 -1.527422,-0.77923 -3.803322,-2.97469 -4.589535,-4.42731 -1.521503,-2.81117 -1.544956,-3.07872 -1.469978,-16.76914 l 0.06877,-12.55711 2.450156,-0.0761 c 2.44978,-0.0761 2.450197,-0.076 2.723107,0.6418 0.150123,0.39486 0.238178,2.05621 0.195677,3.6919 -0.0425,1.63569 0.02152,3.07329 0.142264,3.19466 0.120745,0.12136 2.085039,0.2802 4.365089,0.35296 l 4.14555,0.13229 0.20678,1.5875 c 0.11373,0.87312 0.13889,1.97153 0.0559,2.44089 l -0.15086,0.8534 -4.28871,0.0726 -4.288713,0.0726 -0.07111,6.01827 c -0.07088,5.99841 -0.06887,6.02268 0.606232,7.35494 1.084651,2.14046 4.334421,3.73358 6.838871,3.35258 1.53142,-0.23297 1.75413,0.0957 1.75413,2.5888 0,1.93428 -0.0679,2.26669 -0.51177,2.50423 -0.71005,0.38001 -3.81275,0.30389 -5.63712,-0.13829 z m 62.36976,-0.0988 c -2.40686,-0.85726 -3.68033,-1.66266 -5.4244,-3.43064 -0.94784,-0.96082 -2.05177,-2.36316 -2.45318,-3.1163 -0.93718,-1.75834 -1.77771,-5.04952 -1.77271,-6.9412 0.0127,-4.79277 2.77759,-9.63987 6.91565,-12.12366 1.61323,-0.96831 5.00209,-1.92384 6.81495,-1.92155 6.58414,0.008 12.33847,4.54798 13.658,10.775 0.48655,2.29609 0.50283,4.67441 0.0346,5.06296 -0.24313,0.20179 -3.62163,0.31557 -10.78177,0.36313 l -10.42768,0.0692 -0.0862,0.75376 c -0.21955,1.91879 3.53309,5.47898 6.19607,5.87832 3.37532,0.50616 6.22192,-0.39626 8.63116,-2.73621 1.09681,-1.06526 1.32019,-1.17762 1.85209,-0.93158 1.00971,0.46707 3.11838,2.47433 3.11838,2.96842 0,1.19604 -4.37592,4.47191 -7.10547,5.31926 -2.25774,0.70087 -7.21596,0.70684 -9.1695,0.011 z m 12.06195,-16.31456 c 0.295,-0.35546 0.25218,-0.60516 -0.27379,-1.59663 -0.79738,-1.50307 -2.07254,-2.61568 -4.09369,-3.57186 -3.55767,-1.68307 -8.12761,-0.50603 -10.20354,2.62805 -1.00912,1.5235 -1.25801,2.40919 -0.76479,2.72155 0.2016,0.12767 3.65594,0.23395 7.67633,0.23618 6.36677,0.004 7.3549,-0.0503 7.65948,-0.41729 z m -37.54897,16.32801 c -0.27123,-0.17191 -0.38931,-1.59148 -0.50179,-6.03286 -0.26521,-10.47143 0.5824,-13.8401 4.3978,-17.47814 1.65251,-1.57571 3.34688,-2.4968 5.70836,-3.10319 1.65572,-0.42515 4.3858,-0.5939 4.86064,-0.30043 0.41402,0.25588 0.62203,2.241 0.37718,3.59962 l -0.21457,1.19063 -2.00468,0.30568 c -3.26062,0.4972 -5.4836,1.94742 -6.79513,4.433 l -0.71061,1.34673 -0.0761,7.80521 c -0.0672,6.89387 -0.12717,7.84382 -0.51359,8.13594 -0.49558,0.37462 -3.97229,0.44974 -4.52753,0.0978 z" id="path3"></path><path style="fill:#000000" d="m 118.20286,140.49413 c -3.92294,-1.49264 -6.32245,-4.55962 -7.13575,-9.1207 -0.52704,-2.95574 -0.53558,-16.79822 -0.0106,-17.23389 0.23332,-0.19364 1.14483,-0.27962 2.44739,-0.23084 l 2.07561,0.0777 0.13985,8.46667 c 0.15484,9.3739 0.25664,9.99521 1.92192,11.73001 3.14022,3.2713 8.44353,2.58386 10.88734,-1.41126 l 0.80922,-1.32292 0.0831,-8.59383 c 0.0605,-6.26002 0.16832,-8.64801 0.39687,-8.79334 0.5927,-0.37688 4.06045,-0.23773 4.40442,0.17673 0.23912,0.28813 0.29465,2.55703 0.22177,9.06198 l -0.0972,8.67763 -0.78469,1.84677 c -1.11733,2.62964 -3.44579,5.05038 -6.00154,6.23938 -1.76962,0.82327 -2.16445,0.9024 -4.83731,0.96945 -2.51367,0.063 -3.12989,-0.0105 -4.52037,-0.53957 z m 45.92766,0.01 c -5.89595,-1.81134 -9.78958,-7.12986 -9.78958,-13.3721 0,-7.81441 5.99893,-13.80708 13.8215,-13.80708 3.83347,0 6.74938,1.24094 9.56676,4.07135 2.56171,2.57359 3.86382,5.81224 3.86382,9.61028 v 1.92879 h -10.55094 c -9.06357,0 -10.59744,0.056 -10.88086,0.39753 -0.91649,1.10431 1.06831,4.18918 3.68693,5.73039 3.55475,2.09219 7.9005,1.49777 11.12916,-1.52226 0.68565,-0.64135 1.41492,-1.16608 1.62061,-1.16608 0.56478,0 3.14439,2.3584 3.1335,2.86479 -0.0134,0.62411 -0.94203,1.64003 -2.63632,2.88419 -2.82976,2.07797 -4.6262,2.69605 -8.33437,2.8675 -2.2408,0.10361 -2.94961,0.029 -4.63021,-0.4873 z m 11.54,-15.90953 c 0.96041,-0.36854 -0.0957,-2.80801 -1.83135,-4.23027 -1.94392,-1.59289 -3.45327,-2.14117 -5.87219,-2.1331 -3.36033,0.0112 -5.75462,1.37613 -7.4306,4.23598 -0.71955,1.22781 -0.68718,2.13573 0.0814,2.28396 0.72099,0.13905 14.66019,-0.006 15.05273,-0.15657 z M 73.099383,140.46827 c -1.973393,-0.74885 -3.078194,-1.47282 -4.43196,-2.90422 -1.765551,-1.86681 -2.935409,-4.32588 -3.255074,-6.84224 -0.299173,-2.35505 -0.262973,-16.29061 0.04281,-16.47959 0.338331,-0.2091 4.141374,-0.33506 4.445286,-0.14723 0.168854,0.10435 0.301111,3.25055 0.357116,8.49525 0.08387,7.85383 0.121318,8.39947 0.655794,9.5544 1.495819,3.23225 4.803404,4.78752 8.126872,3.82136 1.728686,-0.50254 3.001005,-1.53202 4.042943,-3.27129 l 0.746305,-1.24578 0.08605,-8.59565 c 0.06219,-6.21207 0.172244,-8.65047 0.396875,-8.79334 0.373303,-0.23744 3.665884,-0.27239 4.257933,-0.0452 0.369328,0.14172 0.418145,1.129 0.415374,8.40052 -0.0033,8.77867 -0.09226,9.57738 -1.379077,12.38816 -0.91358,1.99552 -2.987135,4.02779 -5.159536,5.0568 -1.687852,0.7995 -1.985916,0.85251 -5.099914,0.90704 -2.261685,0.0396 -3.604635,-0.0549 -4.2478,-0.29899 z m 28.192597,0.005 c -3.777275,-0.9496 -6.806147,-3.8298 -7.895837,-7.50826 -0.345968,-1.16788 -0.419599,-3.42847 -0.453932,-13.93643 -0.02254,-6.89834 0.03826,-12.67065 0.13511,-12.82736 0.246216,-0.39838 4.186869,-0.37042 4.589863,0.0326 0.212741,0.21274 0.318837,1.41311 0.321552,3.63802 0.0022,1.82629 0.114205,3.49467 0.248837,3.70753 0.193116,0.30532 1.071871,0.40268 4.163137,0.46122 2.15509,0.0408 4.06718,0.13082 4.24908,0.2 0.51161,0.19458 0.44818,3.94888 -0.074,4.38228 -0.30365,0.252 -1.31544,0.29988 -4.04979,0.19164 -2.10136,-0.0832 -3.834803,-0.0381 -4.093149,0.10648 -0.399918,0.22381 -0.448127,0.87649 -0.448127,6.06697 0,4.62364 0.08305,6.01496 0.405061,6.78563 1.105205,2.64513 2.982295,3.81429 6.474105,4.03244 l 2.24896,0.1405 v 2.38125 2.38125 l -2.24896,0.0484 c -1.23693,0.0266 -2.84427,-0.10124 -3.57187,-0.28416 z m 36.80916,-0.30524 c -0.0904,-0.23559 -0.1623,-3.48447 -0.15978,-7.21973 0.005,-7.5832 0.24204,-9.38831 1.59334,-12.14015 0.95735,-1.94961 3.4887,-4.5908 5.26027,-5.48852 2.51435,-1.27412 7.0355,-2.12203 7.82429,-1.4674 0.5123,0.42517 0.56773,4.03635 0.068,4.43191 -0.1819,0.14399 -1.08186,0.32651 -1.99992,0.40559 -3.05733,0.26337 -5.74459,2.14613 -7.02411,4.92126 -0.52357,1.13555 -0.57347,1.78122 -0.6978,9.02822 l -0.1339,7.80521 -2.28302,0.076 c -1.90566,0.0634 -2.3102,0.005 -2.4474,-0.35237 z" id="path2"></path><path style="fill:#000000" d="m 118.32906,140.23295 c -2.8614,-1.20451 -4.29659,-2.40775 -5.59341,-4.6894 -1.41663,-2.49247 -1.58771,-3.71409 -1.71559,-12.25036 -0.065,-4.34014 -0.0445,-8.18485 0.0456,-8.54381 0.15867,-0.63221 0.22773,-0.65022 2.20652,-0.5755 l 2.04272,0.0771 0.13229,8.46667 c 0.13183,8.43704 0.1347,8.47179 0.82015,9.93105 1.20992,2.57584 3.16748,3.76927 6.19131,3.77454 2.881,0.005 5.20657,-1.42954 6.67579,-4.11802 0.4244,-0.77661 0.46084,-1.62846 0.3914,-9.15103 -0.0555,-6.01117 0.008,-8.39668 0.23083,-8.66511 0.31654,-0.3814 3.21912,-0.53148 4.05743,-0.20979 0.36869,0.14148 0.41851,1.10057 0.41851,8.05677 0,4.88596 -0.11439,8.43068 -0.30006,9.29825 -0.76948,3.5955 -3.02895,6.50312 -6.27953,8.08086 -1.89886,0.92166 -2.19304,0.98499 -4.92978,1.06124 -2.57268,0.0717 -3.0826,0.009 -4.39417,-0.54349 z m 45.80146,0.003 c -2.37378,-0.73059 -3.70695,-1.5437 -5.60329,-3.41747 -2.52181,-2.4918 -3.92171,-5.96688 -3.92171,-9.73518 0,-2.59442 0.54999,-4.64967 1.83141,-6.84376 2.51299,-4.30283 6.65065,-6.64999 11.72286,-6.64999 2.35475,0 5.15372,0.74135 6.91968,1.83277 1.06528,0.65838 3.83681,3.54673 4.58854,4.78194 0.85015,1.39695 1.66043,4.65443 1.66043,6.67529 v 1.79125 h -10.33615 c -6.61899,0 -10.52019,0.0985 -10.84791,0.2739 -1.13553,0.60771 -0.38264,2.80208 1.66023,4.83887 2.12186,2.11555 3.44481,2.65012 6.48241,2.61936 2.18135,-0.0221 2.70207,-0.12351 4.17625,-0.81336 0.92629,-0.43346 2.22401,-1.28573 2.88382,-1.89392 l 1.19965,-1.1058 0.8695,0.59731 c 1.41762,0.97385 2.06011,1.63301 2.06011,2.11356 0,1.03592 -4.37257,4.17224 -6.83478,4.90237 -0.82477,0.24458 -2.63069,0.48945 -4.01313,0.54414 -2.06947,0.0819 -2.86413,-0.008 -4.49792,-0.51128 z m 12.12273,-15.73233 c 0.69205,-1.36296 -1.57606,-4.29304 -4.3971,-5.68046 -1.59306,-0.78348 -1.98419,-0.86594 -4.01765,-0.84703 -1.88294,0.0175 -2.47462,0.13455 -3.60412,0.71295 -1.89534,0.97057 -2.92266,1.90347 -3.8211,3.4699 -1.62256,2.82894 -1.68114,2.80766 7.7296,2.80766 7.23431,0 7.89441,-0.0377 8.11037,-0.46302 z m -103.739952,15.4331 c -3.868314,-1.59074 -6.33694,-5.0135 -6.858116,-9.50881 -0.137351,-1.18469 -0.186975,-5.24961 -0.110276,-9.03315 l 0.139452,-6.87916 1.928808,-0.16444 c 1.060845,-0.0904 2.009911,-0.0904 2.109036,0 0.09913,0.0904 0.218188,3.85537 0.264584,8.36652 0.07885,7.66706 0.120458,8.27975 0.63782,9.39271 0.754495,1.62308 1.740172,2.73126 3.179707,3.57488 1.108903,0.64986 1.40401,0.70161 3.522521,0.61772 2.024842,-0.0802 2.469296,-0.19021 3.576018,-0.88531 0.841356,-0.52843 1.585926,-1.31649 2.227501,-2.35761 l 0.963706,-1.56386 0.08814,-8.53594 0.08814,-8.53594 1.982345,-0.18576 c 1.212281,-0.1136 2.083901,-0.0842 2.243779,0.0757 0.164949,0.16495 0.230499,3.42389 0.177611,8.83036 l -0.08382,8.56891 -0.864883,2.14812 c -0.699841,1.7382 -1.155549,2.42537 -2.388073,3.601 -2.566921,2.44843 -4.382939,3.11037 -8.519272,3.10528 -2.313135,-0.003 -3.03364,-0.10849 -4.304719,-0.63119 z m 28.778682,0.27246 c -3.138322,-0.78933 -5.475667,-2.69373 -6.939405,-5.65401 l -0.998099,-2.01857 -0.132292,-12.58238 c -0.07276,-6.9203 -0.08865,-12.85026 -0.0353,-13.17769 0.09011,-0.55311 0.231724,-0.59531 1.997605,-0.59531 1.125477,0 2.030101,0.12949 2.218114,0.3175 0.213552,0.21355 0.3175,1.41567 0.3175,3.67177 0,2.79319 0.07299,3.41501 0.436328,3.7174 0.309569,0.25763 1.59707,0.40156 4.431769,0.49541 l 3.99544,0.1323 v 1.98437 1.98438 h -4.17646 c -3.424341,0 -4.221701,0.0715 -4.427713,0.39687 -0.138863,0.21934 -0.251917,3.00075 -0.252728,6.21771 -0.0014,5.55436 0.02697,5.88189 0.619598,7.15456 1.121839,2.40914 3.032893,3.546 6.385223,3.79851 l 2.11667,0.15943 v 2.11667 2.11666 l -2.11667,0.0486 c -1.16417,0.0267 -2.71198,-0.10116 -3.43958,-0.28416 z m 37.08576,-0.0731 c -0.28598,-0.28598 -0.19748,-13.55963 0.10274,-15.40993 0.66749,-4.11383 3.82729,-8.17141 7.51216,-9.64656 1.86582,-0.74694 5.60874,-1.41956 6.33934,-1.13921 0.53621,0.20577 0.61321,3.66659 0.0907,4.07837 -0.1819,0.14336 -1.07634,0.33486 -1.98763,0.42555 -2.43007,0.24185 -4.68702,1.54163 -6.16379,3.54972 -1.36005,1.84938 -1.57202,3.36367 -1.57202,11.23029 v 7.08816 h -2.07257 c -1.13991,0 -2.15194,-0.0794 -2.24896,-0.17639 z" id="path1"></path></g></g></svg>